<?xml version="1.0" encoding="UTF-8" standalone="no"?>
<svg
   width="371.1748"
   zoomAndPan="magnify"
   viewBox="0 0 278.3811 90.21826"
   height="120.29102"
   preserveAspectRatio="xMidYMid"
   version="1.0"
   id="svg131"
   xmlns="http://www.w3.org/2000/svg"
   xmlns:svg="http://www.w3.org/2000/svg">
  <defs
     id="defs4">
    <clipPath
       id="031d8c1765">
      <path
         d="M 48.777344,240.12109 H 120 V 288 H 48.777344 Z m 0,0"
         clip-rule="nonzero"
         id="path3" />
    </clipPath>
    <clipPath
       id="ee34bd9046">
      <path
         d="m 54,244 h 67.52734 v 43 H 54 Z m 0,0"
         clip-rule="nonzero"
         id="path4" />
    </clipPath>
  </defs>
  <rect
     x="-76.443001"
     width="450"
     fill="#ffffff"
     y="-267.75"
     height="450"
     fill-opacity="1"
     id="rect4"
     style="opacity:0" />
  <rect
     x="-76.443001"
     width="450"
     fill="#ffffff"
     y="-267.75"
     height="450"
     fill-opacity="1"
     id="rect5"
     style="opacity:0" />
  <g
     fill="#5e3b2c"
     fill-opacity="1"
     id="g71"
     transform="translate(-38.943,-230.25)">
    <g
       transform="translate(159.32194,269.24998)"
       id="g70">
      <g
         id="g69">
        <path
           d="m 13.3125,-5.953125 c 0.113281,1.324219 -0.273438,2.507813 -1.15625,3.546875 -0.367188,0.449219 -0.71875,0.761719 -1.0625,0.9375 -2.78125,1.5195312 -5.433594,1.851562 -7.953125,1 -0.511719,-0.175781 -1.03125,-0.488281 -1.5625,-0.9375 C 1.109375,-1.78125 0.96875,-2.3125 1.15625,-3 1.269531,-3.445312 1.332031,-3.914062 1.34375,-4.40625 1.351562,-5.269531 1.363281,-6.128906 1.375,-6.984375 1.394531,-7.847656 1.410156,-8.707031 1.421875,-9.5625 c 0.019531,-0.6875 0.03125,-1.375 0.03125,-2.0625 0.00781,-0.695312 0.019531,-1.382812 0.03125,-2.0625 v -0.09375 c 0.019531,-0.144531 0.00781,-0.304688 -0.03125,-0.484375 -0.03125,-0.175781 -0.171875,-0.34375 -0.421875,-0.5 -0.148438,-0.08203 -0.230469,-0.203125 -0.25,-0.359375 -0.023438,-0.175781 0.039062,-0.332031 0.1875,-0.46875 l 0.1875,-0.203125 c 0.238281,-0.21875 0.484375,-0.441406 0.734375,-0.671875 0.257813,-0.226562 0.53125,-0.378906 0.8125,-0.453125 1.625,-0.414063 3.195313,-0.65625 4.71875,-0.71875 0.082031,-0.0078 0.175781,-0.01563 0.28125,-0.01563 1.851563,0 3.171875,0.824219 3.953125,2.46875 0.71875,1.492188 0.503906,2.835938 -0.640625,4.03125 -0.0625,0.05469 -0.132813,0.109375 -0.203125,0.171875 -0.0625,0.05469 -0.136719,0.109375 -0.21875,0.171875 -0.04297,0.02344 -0.08594,0.05469 -0.125,0.09375 -0.04297,0.03125 -0.08594,0.0625 -0.125,0.09375 l -0.265625,0.1875 0.265625,0.15625 c 0.08203,0.07422 0.160156,0.140625 0.234375,0.203125 0.07031,0.05469 0.144531,0.105469 0.21875,0.15625 0.144531,0.117187 0.273437,0.21875 0.390625,0.3125 0.113281,0.085937 0.226562,0.179687 0.34375,0.28125 1.0625,0.898437 1.65625,2.023437 1.78125,3.375 z m -8.84375,-5.6875 v 0.28125 l 0.265625,-0.0625 c 0.144531,-0.03125 0.273437,-0.0625 0.390625,-0.09375 0.125,-0.03906 0.25,-0.07031 0.375,-0.09375 0.269531,-0.0625 0.535156,-0.125 0.796875,-0.1875 0.269531,-0.07031 0.535156,-0.160156 0.796875,-0.265625 0.40625,-0.144531 0.695312,-0.296875 0.875,-0.453125 0.175781,-0.15625 0.316406,-0.289063 0.421875,-0.40625 L 8.5,-13.0625 c 0.082031,-0.15625 0.160156,-0.328125 0.234375,-0.515625 0.070313,-0.195313 0.078125,-0.40625 0.015625,-0.625 -0.074219,-0.207031 -0.234375,-0.375 -0.484375,-0.5 -0.273437,-0.125 -0.65625,-0.222656 -1.15625,-0.296875 -0.242187,-0.0078 -0.476563,-0.0078 -0.703125,0 -0.21875,0 -0.484375,0.03906 -0.796875,0.109375 -0.304687,0.07422 -0.6875,0.195313 -1.15625,0.359375 l -0.171875,0.0625 v 0.171875 c 0.00781,0.304687 0.023438,0.558594 0.046875,0.765625 0.019531,0.199219 0.035156,0.390625 0.046875,0.578125 0.019531,0.179687 0.035156,0.367187 0.046875,0.5625 0.019531,0.199219 0.035156,0.449219 0.046875,0.75 z M 10.109375,-5.5 C 10.203125,-6.175781 9.941406,-6.800781 9.328125,-7.375 8.941406,-7.757812 8.523438,-8.019531 8.078125,-8.15625 7.640625,-8.289062 7.195312,-8.359375 6.75,-8.359375 c -0.449219,0 -0.898438,0.023437 -1.34375,0.0625 L 4.984375,-8.28125 c -0.136719,0.011719 -0.246094,0.101562 -0.328125,0.265625 -0.085938,0.167969 -0.132812,0.304687 -0.140625,0.40625 0,0.210937 0,0.421875 0,0.640625 0,0.21875 0,0.433594 0,0.640625 V -5.875 l 0.015625,0.234375 c 0,0.054687 0,0.101563 0,0.140625 0,0.042969 0,0.085938 0,0.125 0,0.199219 0,0.390625 0,0.578125 0,0.1875 -0.00781,0.382813 -0.015625,0.578125 -0.03125,0.554688 0.234375,0.855469 0.796875,0.90625 0.175781,0.011719 0.347656,0.015625 0.515625,0.015625 1.050781,0 2.097656,-0.253906 3.140625,-0.765625 C 9.625,-4.382812 10.003906,-4.863281 10.109375,-5.5 Z m 0,0"
           id="path68" />
      </g>
    </g>
  </g>
  <g
     fill="#5e3b2c"
     fill-opacity="1"
     id="g74"
     transform="translate(-38.943,-230.25)">
    <g
       transform="translate(174.89124,269.24998)"
       id="g73">
      <g
         id="g72">
        <path
           d="m 8.9375,-15.625 c 0.9375,0.230469 1.796875,0.511719 2.578125,0.84375 0.78125,0.335938 1.457031,0.773438 2.03125,1.3125 0.570313,0.53125 1.03125,1.210938 1.375,2.03125 0.34375,0.8125 0.546875,1.808594 0.609375,2.984375 -0.167969,1.875 -0.703125,3.367187 -1.609375,4.46875 -0.179687,0.199219 -0.355469,0.402344 -0.53125,0.609375 -0.167969,0.199219 -0.339844,0.398438 -0.515625,0.59375 l -0.40625,0.46875 c -1.335938,1.574219 -3.085938,2.2265625 -5.25,1.953125 C 7.0625,-0.367188 6.90625,-0.390625 6.75,-0.421875 6.59375,-0.453125 6.441406,-0.476562 6.296875,-0.5 L 6.203125,-0.53125 C 4.191406,-0.945312 2.710938,-1.992188 1.765625,-3.671875 1.234375,-4.585938 0.914062,-5.617188 0.8125,-6.765625 0.707031,-7.921875 0.828125,-9 1.171875,-10 c 1.144531,-3.289062 3.320313,-5.144531 6.53125,-5.5625 l 0.21875,-0.03125 c 0.113281,-0.01953 0.222656,-0.03516 0.328125,-0.04687 0.113281,-0.0078 0.226562,-0.01563 0.34375,-0.01563 0.125,0 0.238281,0.01172 0.34375,0.03125 z m 2.8125,7.515625 0.01563,-0.0625 v -0.0625 c -0.105469,-0.757813 -0.308594,-1.34375 -0.609375,-1.75 -0.292969,-0.414063 -0.765625,-0.757813 -1.421875,-1.03125 -0.605469,-0.25 -1.132813,-0.484375 -1.578125,-0.703125 -0.605469,-0.3125 -1.125,-0.414062 -1.5625,-0.3125 -0.429688,0.105469 -0.828125,0.433594 -1.203125,0.984375 -1.117187,1.6875 -1.386719,3.328125 -0.8125,4.921875 0.1875,0.53125 0.492187,0.980469 0.921875,1.34375 C 5.925786,-4.414062 6.42188,-4.175781 6.98438,-4.0625 7.179688,-4.019531 7.382812,-4 7.59375,-4 8.488281,-4 9.226562,-4.335938 9.8125,-5.015625 9.863281,-5.066406 9.914062,-5.113281 9.96875,-5.15625 c 0.050781,-0.050781 0.097656,-0.101562 0.140625,-0.15625 0.125,-0.132812 0.242187,-0.265625 0.359375,-0.390625 0.125,-0.132813 0.234375,-0.28125 0.328125,-0.4375 0.125,-0.226563 0.242187,-0.457031 0.359375,-0.6875 0.113281,-0.226563 0.21875,-0.460937 0.3125,-0.703125 0.03906,-0.09375 0.08203,-0.1875 0.125,-0.28125 0.03906,-0.101562 0.09375,-0.203125 0.15625,-0.296875 z m 0,0"
           id="path71" />
      </g>
    </g>
  </g>
  <g
     fill="#5e3b2c"
     fill-opacity="1"
     id="g77"
     transform="translate(-38.943,-230.25)">
    <g
       transform="translate(192.68157,269.24998)"
       id="g76">
      <g
         id="g75">
        <path
           d="m 11.234375,-5.046875 c 0.25,0.992187 0.171875,1.875 -0.234375,2.65625 C 10.601562,-1.609375 9.941406,-1.0625 9.015625,-0.75 7.984375,-0.382812 6.738281,-0.175781 5.28125,-0.125 4.625,-0.09375 4.039062,-0.238281 3.53125,-0.5625 3.019531,-0.894531 2.613281,-1.234375 2.3125,-1.578125 c -0.34375,-0.375 -0.554688,-0.773437 -0.625,-1.203125 -0.074219,-0.4375 -0.00781,-0.832031 0.203125,-1.1875 0.332031,-0.582031 0.882813,-0.875 1.65625,-0.875 0.207031,0 0.414063,0.023438 0.625,0.0625 0.082031,0.03125 0.171875,0.058594 0.265625,0.078125 0.101562,0.023437 0.195312,0.042969 0.28125,0.0625 0.375,0.117187 0.753906,0.210937 1.140625,0.28125 0.394531,0.074219 0.8125,0.042969 1.25,-0.09375 l 0.6875,-0.203125 -0.09375,-0.234375 C 7.515625,-5.316406 7.253906,-5.628906 6.921875,-5.828125 6.585938,-6.035156 6.238281,-6.195312 5.875,-6.3125 4.4375,-6.75 3.132812,-7.550781 1.96875,-8.71875 c -0.855469,-0.863281 -1.25,-1.835938 -1.1875,-2.921875 0.050781,-1.0625 0.53125,-1.960937 1.4375,-2.703125 1.738281,-1.425781 3.703125,-1.878906 5.890625,-1.359375 0.976563,0.21875 1.707031,0.714844 2.1875,1.484375 0.175781,0.324219 0.28125,0.671875 0.3125,1.046875 0,0.117187 -0.01563,0.246094 -0.04687,0.390625 -0.02344,0.136719 -0.08594,0.242188 -0.1875,0.3125 -0.167969,0.125 -0.421875,0.117188 -0.765625,-0.03125 -0.429687,-0.164062 -0.945313,-0.320312 -1.546875,-0.46875 -0.59375,-0.144531 -1.226562,-0.140625 -1.890625,0.01563 -0.324219,0.0625 -0.636719,0.167969 -0.9375,0.3125 -0.304687,0.136719 -0.578125,0.28125 -0.828125,0.4375 -0.292969,0.167969 -0.4375,0.386719 -0.4375,0.65625 0,0.261719 0.132812,0.484375 0.40625,0.671875 l 0.46875,0.265625 c 0.375,0.21875 0.753906,0.4375 1.140625,0.65625 0.382813,0.21875 0.78125,0.414063 1.1875,0.578125 2.238281,0.898438 3.59375,2.339844 4.0625,4.328125 z m 0,0"
           id="path74" />
      </g>
    </g>
  </g>
  <g
     fill="#5e3b2c"
     fill-opacity="1"
     id="g80"
     transform="translate(-38.943,-230.25)">
    <g
       transform="translate(206.30224,269.24998)"
       id="g79">
      <g
         id="g78">
        <path
           d="m 15.953125,-3.265625 c 0.394531,0.59375 0.394531,1.15625 0,1.6875 -0.460937,0.605469 -0.929687,1.011719 -1.40625,1.21875 C 13.054688,0.335938 11.414062,0.726562 9.625,0.8125 6.96875,0.625 4.816406,-0.238281 3.171875,-1.78125 0.960938,-3.832031 0.28125,-6.503906 1.125,-9.796875 c 0.632812,-2.46875 2.164062,-4.488281 4.59375,-6.0625 0.5625,-0.34375 1.148438,-0.601563 1.765625,-0.78125 0.613281,-0.175781 1.226563,-0.265625 1.84375,-0.265625 0.726563,0 1.429687,0.121094 2.109375,0.359375 0.675781,0.230469 1.296875,0.574219 1.859375,1.03125 0.414063,0.34375 0.722656,0.71875 0.921875,1.125 0.164062,0.386719 0.148438,0.726563 -0.04687,1.015625 -0.21875,0.292969 -0.554687,0.414062 -1,0.359375 -0.324219,-0.03125 -0.683594,-0.128906 -1.078125,-0.296875 -1.449219,-0.59375 -2.734375,-0.664062 -3.859375,-0.21875 -1.125,0.449219 -2.171875,1.445312 -3.140625,2.984375 -0.210938,0.335937 -0.367188,0.695313 -0.46875,1.078125 -0.105469,0.375 -0.1875,0.714844 -0.25,1.015625 -0.1875,0.980469 -0.054688,1.90625 0.40625,2.78125 0.457031,0.867187 1.171875,1.527344 2.140625,1.984375 0.75,0.375 1.488281,0.59375 2.21875,0.65625 0.738281,0.0625 1.445313,0.03125 2.125,-0.09375 0.675781,-0.125 1.320313,-0.289062 1.9375,-0.5 0.1875,-0.0625 0.390625,-0.125 0.609375,-0.1875 0.21875,-0.0625 0.421875,-0.101562 0.609375,-0.125 0.675781,-0.070312 1.1875,0.152344 1.53125,0.671875 z m 0,0"
           id="path77" />
      </g>
    </g>
  </g>
  <g
     fill="#5e3b2c"
     fill-opacity="1"
     id="g83"
     transform="translate(-38.943,-230.25)">
    <g
       transform="translate(224.76307,269.24998)"
       id="g82">
      <g
         id="g81">
        <path
           d="m 8.9375,-15.625 c 0.9375,0.230469 1.796875,0.511719 2.578125,0.84375 0.78125,0.335938 1.457031,0.773438 2.03125,1.3125 0.570313,0.53125 1.03125,1.210938 1.375,2.03125 0.34375,0.8125 0.546875,1.808594 0.609375,2.984375 -0.167969,1.875 -0.703125,3.367187 -1.609375,4.46875 -0.179687,0.199219 -0.355469,0.402344 -0.53125,0.609375 -0.167969,0.199219 -0.339844,0.398438 -0.515625,0.59375 l -0.40625,0.46875 c -1.335938,1.574219 -3.085938,2.2265625 -5.25,1.953125 C 7.0625,-0.367188 6.90625,-0.390625 6.75,-0.421875 6.59375,-0.453125 6.441406,-0.476562 6.296875,-0.5 L 6.203125,-0.53125 C 4.191406,-0.945312 2.710938,-1.992188 1.765625,-3.671875 1.234375,-4.585938 0.914062,-5.617188 0.8125,-6.765625 0.707031,-7.921875 0.828125,-9 1.171875,-10 c 1.144531,-3.289062 3.320313,-5.144531 6.53125,-5.5625 l 0.21875,-0.03125 c 0.113281,-0.01953 0.222656,-0.03516 0.328125,-0.04687 0.113281,-0.0078 0.226562,-0.01563 0.34375,-0.01563 0.125,0 0.238281,0.01172 0.34375,0.03125 z m 2.8125,7.515625 0.01563,-0.0625 v -0.0625 c -0.105469,-0.757813 -0.308594,-1.34375 -0.609375,-1.75 -0.292969,-0.414063 -0.765625,-0.757813 -1.421875,-1.03125 -0.605469,-0.25 -1.132813,-0.484375 -1.578125,-0.703125 -0.605469,-0.3125 -1.125,-0.414062 -1.5625,-0.3125 -0.429688,0.105469 -0.828125,0.433594 -1.203125,0.984375 -1.117187,1.6875 -1.386719,3.328125 -0.8125,4.921875 0.1875,0.53125 0.492187,0.980469 0.921875,1.34375 C 5.925786,-4.414062 6.42188,-4.175781 6.98438,-4.0625 7.179688,-4.019531 7.382812,-4 7.59375,-4 8.488281,-4 9.226562,-4.335938 9.8125,-5.015625 9.863281,-5.066406 9.914062,-5.113281 9.96875,-5.15625 c 0.050781,-0.050781 0.097656,-0.101562 0.140625,-0.15625 0.125,-0.132812 0.242187,-0.265625 0.359375,-0.390625 0.125,-0.132813 0.234375,-0.28125 0.328125,-0.4375 0.125,-0.226563 0.242187,-0.457031 0.359375,-0.6875 0.113281,-0.226563 0.21875,-0.460937 0.3125,-0.703125 0.03906,-0.09375 0.08203,-0.1875 0.125,-0.28125 0.03906,-0.101562 0.09375,-0.203125 0.15625,-0.296875 z m 0,0"
           id="path80" />
      </g>
    </g>
  </g>
  <g
     fill="#5e3b2c"
     fill-opacity="1"
     id="g89"
     transform="translate(-38.943,-230.25)">
    <g
       transform="translate(250.03481,269.24998)"
       id="g88">
      <g
         id="g87">
        <path
           d="m 11.46875,-13.8125 c 0.726562,0.710938 1.289062,1.546875 1.6875,2.515625 0.394531,0.960937 0.59375,1.96875 0.59375,3.03125 0,2.28125 -0.902344,4.085937 -2.703125,5.40625 C 8.742188,-1.160156 6.210938,-0.25 3.453125,-0.125 2.816406,-0.09375 2.191406,-0.257812 1.578125,-0.625 1.179688,-0.832031 0.9375,-1.148438 0.84375,-1.578125 c -0.148438,-0.488281 -0.058594,-1 0.265625,-1.53125 0.269531,-0.425781 0.410156,-0.878906 0.421875,-1.359375 0.00781,-0.875 0.019531,-1.75 0.03125,-2.625 0.019531,-0.882812 0.035156,-1.773438 0.046875,-2.671875 0.019531,-0.601563 0.03125,-1.207031 0.03125,-1.8125 0.00781,-0.613281 0.019531,-1.222656 0.03125,-1.828125 0,-0.414062 0.035156,-0.738281 0.109375,-0.96875 0.082031,-0.238281 0.222656,-0.425781 0.421875,-0.5625 0.207031,-0.144531 0.507813,-0.28125 0.90625,-0.40625 0.300781,-0.101562 0.617187,-0.191406 0.953125,-0.265625 0.34375,-0.07031 0.671875,-0.144531 0.984375,-0.21875 0.113281,-0.03125 0.226563,-0.05469 0.34375,-0.07813 0.113281,-0.01953 0.222656,-0.04687 0.328125,-0.07813 l 0.03125,0.125 h 0.1875 c 1.0625,-0.03906 2.070312,0.117187 3.03125,0.46875 0.957031,0.355469 1.789062,0.882813 2.5,1.578125 z m -3.0625,7.734375 C 8.894531,-6.367188 9.273438,-6.769531 9.546875,-7.28125 9.816406,-7.789062 9.945312,-8.34375 9.9375,-8.9375 c 0,-0.613281 -0.148438,-1.175781 -0.4375,-1.6875 -0.292969,-0.519531 -0.695312,-0.9375 -1.203125,-1.25 -0.429687,-0.257812 -0.886719,-0.4375 -1.375,-0.53125 C 6.441406,-12.5 5.96875,-12.570312 5.5,-12.625 5.394531,-12.6328 5.289062,-12.64453 5.1875,-12.65625 5.09375,-12.67578 4.992188,-12.69141 4.890625,-12.70312 l -0.28125,-0.04687 0.40625,8.453125 0.3125,-0.171875 C 5.503906,-4.5625 5.679688,-4.648438 5.859375,-4.734375 6.035156,-4.816406 6.207031,-4.898438 6.375,-4.984375 6.738281,-5.148438 7.085938,-5.320312 7.421875,-5.5 7.753906,-5.675781 8.082031,-5.867188 8.40625,-6.078125 Z m 0,0"
           id="path86" />
      </g>
    </g>
  </g>
  <g
     fill="#5e3b2c"
     fill-opacity="1"
     id="g92"
     transform="translate(-38.943,-230.25)">
    <g
       transform="translate(266.04413,269.24998)"
       id="g91">
      <g
         id="g90">
        <path
           d="m 4.984375,-12.4375 c 0.101563,1.480469 0.09375,2.964844 -0.03125,4.453125 -0.117187,1.492187 -0.257813,2.960937 -0.421875,4.40625 l -0.125,1.25 C 4.363281,-2.035156 4.25,-1.722656 4.0625,-1.390625 3.726562,-0.816406 3.28125,-0.53125 2.71875,-0.53125 c -0.511719,0 -0.914062,-0.265625 -1.203125,-0.796875 -0.367187,-0.65625 -0.570313,-1.382813 -0.609375,-2.1875 -0.042969,-0.550781 -0.0625,-1.101563 -0.0625,-1.65625 0,-0.5625 0.003906,-1.113281 0.015625,-1.65625 0,-0.226563 0,-0.457031 0,-0.6875 0,-0.226563 0,-0.460937 0,-0.703125 V -8.453125 H 0.78125 c 0.007812,-0.164063 0.015625,-0.332031 0.015625,-0.5 C 0.804688,-9.128906 0.8125,-9.304688 0.8125,-9.484375 0.84375,-9.992188 0.867188,-10.507812 0.890625,-11.03125 0.921875,-11.5625 0.957031,-12.09375 1,-12.625 c 0.0625,-0.65625 0.179688,-1.265625 0.359375,-1.828125 0.144531,-0.375 0.363281,-0.664063 0.65625,-0.875 0.300781,-0.21875 0.644531,-0.320313 1.03125,-0.3125 0.820313,0.04297 1.351563,0.449219 1.59375,1.21875 0.175781,0.574219 0.289063,1.234375 0.34375,1.984375 z m 0,0"
           id="path89" />
      </g>
    </g>
  </g>
  <g
     fill="#5e3b2c"
     fill-opacity="1"
     id="g95"
     transform="translate(-38.943,-230.25)">
    <g
       transform="translate(123.12272,293.24998)"
       id="g94">
      <g
         id="g93">
        <path
           d="m 11.234375,-5.046875 c 0.25,0.992187 0.171875,1.875 -0.234375,2.65625 C 10.601562,-1.609375 9.941406,-1.0625 9.015625,-0.75 7.984375,-0.382812 6.738281,-0.175781 5.28125,-0.125 4.625,-0.09375 4.039062,-0.238281 3.53125,-0.5625 3.019531,-0.894531 2.613281,-1.234375 2.3125,-1.578125 c -0.34375,-0.375 -0.554688,-0.773437 -0.625,-1.203125 -0.074219,-0.4375 -0.00781,-0.832031 0.203125,-1.1875 0.332031,-0.582031 0.882813,-0.875 1.65625,-0.875 0.207031,0 0.414063,0.023438 0.625,0.0625 0.082031,0.03125 0.171875,0.058594 0.265625,0.078125 0.101562,0.023437 0.195312,0.042969 0.28125,0.0625 0.375,0.117187 0.753906,0.210937 1.140625,0.28125 0.394531,0.074219 0.8125,0.042969 1.25,-0.09375 l 0.6875,-0.203125 -0.09375,-0.234375 C 7.515625,-5.316406 7.253906,-5.628906 6.921875,-5.828125 6.585938,-6.035156 6.238281,-6.195312 5.875,-6.3125 4.4375,-6.75 3.132812,-7.550781 1.96875,-8.71875 c -0.855469,-0.863281 -1.25,-1.835938 -1.1875,-2.921875 0.050781,-1.0625 0.53125,-1.960937 1.4375,-2.703125 1.738281,-1.425781 3.703125,-1.878906 5.890625,-1.359375 0.976563,0.21875 1.707031,0.714844 2.1875,1.484375 0.175781,0.324219 0.28125,0.671875 0.3125,1.046875 0,0.117187 -0.01563,0.246094 -0.04687,0.390625 -0.02344,0.136719 -0.08594,0.242188 -0.1875,0.3125 -0.167969,0.125 -0.421875,0.117188 -0.765625,-0.03125 -0.429687,-0.164062 -0.945313,-0.320312 -1.546875,-0.46875 -0.59375,-0.144531 -1.226562,-0.140625 -1.890625,0.01563 -0.324219,0.0625 -0.636719,0.167969 -0.9375,0.3125 -0.304687,0.136719 -0.578125,0.28125 -0.828125,0.4375 -0.292969,0.167969 -0.4375,0.386719 -0.4375,0.65625 0,0.261719 0.132812,0.484375 0.40625,0.671875 l 0.46875,0.265625 c 0.375,0.21875 0.753906,0.4375 1.140625,0.65625 0.382813,0.21875 0.78125,0.414063 1.1875,0.578125 2.238281,0.898438 3.59375,2.339844 4.0625,4.328125 z m 0,0"
           id="path92" />
      </g>
    </g>
  </g>
  <g
     fill="#5e3b2c"
     fill-opacity="1"
     id="g98"
     transform="translate(-38.943,-230.25)">
    <g
       transform="translate(136.74339,293.24998)"
       id="g97">
      <g
         id="g96">
        <path
           d="m 16.046875,-3.4375 c 0.0078,0.09375 0.03125,0.183594 0.0625,0.265625 -0.02344,0.523437 -0.140625,0.960937 -0.359375,1.3125 -0.210938,0.34375 -0.511719,0.574219 -0.90625,0.6875 -0.386719,0.125 -0.761719,0.109375 -1.125,-0.046875 C 13.351562,-1.375 13.054688,-1.628906 12.828125,-1.984375 12.585938,-2.390625 12.382812,-2.894531 12.21875,-3.5 c -0.05469,-0.226562 -0.152344,-0.429688 -0.296875,-0.609375 -0.136719,-0.175781 -0.386719,-0.273437 -0.75,-0.296875 -0.40625,-0.00781 -0.8125,-0.019531 -1.21875,-0.03125 C 9.554688,-4.457031 9.15625,-4.472656 8.75,-4.484375 8.21875,-4.515625 7.675781,-4.539062 7.125,-4.5625 6.582031,-4.582031 6.039062,-4.597656 5.5,-4.609375 c -0.148438,0 -0.304688,0.0625 -0.46875,0.1875 C 4.863281,-4.304688 4.738281,-4.1875 4.65625,-4.0625 4.539062,-3.875 4.429688,-3.675781 4.328125,-3.46875 4.222656,-3.269531 4.125,-3.070312 4.03125,-2.875 3.925781,-2.675781 3.820312,-2.472656 3.71875,-2.265625 3.613281,-2.054688 3.5,-1.851562 3.375,-1.65625 2.882812,-0.800781 2.289062,-0.53125 1.59375,-0.84375 1.3125,-0.945312 1.082031,-1.164062 0.90625,-1.5 0.738281,-1.84375 0.722656,-2.238281 0.859375,-2.6875 1.347656,-4.207031 1.976562,-5.929688 2.75,-7.859375 c 0.488281,-1.226563 1.101562,-2.613281 1.84375,-4.15625 0.207031,-0.4375 0.441406,-0.894531 0.703125,-1.375 0.257813,-0.476563 0.539063,-0.945313 0.84375,-1.40625 0.320313,-0.46875 0.789063,-0.875 1.40625,-1.21875 0.457031,-0.28125 0.898437,-0.421875 1.328125,-0.421875 0.738281,0 1.351562,0.414062 1.84375,1.234375 0.957031,1.648437 1.898438,3.367187 2.828125,5.15625 0.925781,1.78125 1.675781,3.65625 2.25,5.625 0.05078,0.179687 0.09766,0.351563 0.140625,0.515625 0.03906,0.167969 0.07813,0.324219 0.109375,0.46875 z m -9.3125,-4.71875 h 3.921875 l -2.25,-4.59375 z m 0,0"
           id="path95" />
      </g>
    </g>
  </g>
  <g
     fill="#5e3b2c"
     fill-opacity="1"
     id="g101"
     transform="translate(-38.943,-230.25)">
    <g
       transform="translate(155.0785,293.24998)"
       id="g100">
      <g
         id="g99">
        <path
           d="m 15.703125,-15.015625 c 0.08203,0.417969 0.125,0.867187 0.125,1.34375 l -0.03125,1.71875 c -0.03125,1.335937 -0.0625,2.683594 -0.09375,4.046875 -0.03125,1.355469 -0.07422,2.710938 -0.125,4.0625 -0.04297,1.460938 -0.46875,2.414062 -1.28125,2.859375 -0.78125,0.4375 -1.789063,0.304687 -3.015625,-0.40625 C 10.65625,-1.742188 10.078125,-2.175781 9.546875,-2.6875 9.023438,-3.195312 8.597656,-3.65625 8.265625,-4.0625 7.835938,-4.539062 7.4375,-5.039062 7.0625,-5.5625 6.6875,-6.09375 6.316406,-6.613281 5.953125,-7.125 5.796875,-7.332031 5.644531,-7.539062 5.5,-7.75 5.351562,-7.96875 5.203125,-8.179688 5.046875,-8.390625 L 4.96875,-8.53125 C 4.882812,-8.644531 4.789062,-8.757812 4.6875,-8.875 4.59375,-9 4.46875,-9.113281 4.3125,-9.21875 L 3.96875,-9.5 v 0.671875 c 0,0.085937 0,0.167969 0,0.25 0,0.074219 0,0.152344 0,0.234375 l -0.0625,1.359375 C 3.875,-6.117188 3.84375,-5.238281 3.8125,-4.34375 3.789062,-3.457031 3.757812,-2.582031 3.71875,-1.71875 3.695312,-1.394531 3.601562,-1.070312 3.4375,-0.75 3.226562,-0.320312 2.9375,-0.0976562 2.5625,-0.078125 2.195312,-0.0546875 1.894531,-0.25 1.65625,-0.65625 1.4375,-0.988281 1.3125,-1.316406 1.28125,-1.640625 1.007812,-3.828125 0.847656,-5.84375 0.796875,-7.6875 0.742188,-9.539062 0.789062,-11.3125 0.9375,-13 c 0.019531,-0.289062 0.097656,-0.597656 0.234375,-0.921875 0.226563,-0.570313 0.597656,-0.953125 1.109375,-1.140625 0.195312,-0.05078 0.390625,-0.07813 0.578125,-0.07813 0.332031,0 0.648437,0.09375 0.953125,0.28125 0.445312,0.25 0.828125,0.570313 1.140625,0.953125 0.34375,0.449219 0.6875,0.90625 1.03125,1.375 0.351563,0.460938 0.703125,0.914062 1.046875,1.359375 0.1875,0.25 0.375,0.5 0.5625,0.75 0.195312,0.25 0.390625,0.5 0.578125,0.75 0.34375,0.449219 0.679687,0.890625 1.015625,1.328125 0.332031,0.429688 0.664062,0.867188 1,1.3125 l 1.03125,1.328125 0.546875,-0.203125 0.01563,-0.390625 c 0.01953,-0.082031 0.03125,-0.164063 0.03125,-0.25 0,-0.082031 0.0039,-0.164063 0.01563,-0.25 0,-0.320313 0.0039,-0.640625 0.01563,-0.953125 0.01953,-0.320312 0.03125,-0.644531 0.03125,-0.96875 0.01953,-0.800781 0.04687,-1.601562 0.07813,-2.40625 0.03125,-0.8125 0.05469,-1.625 0.07813,-2.4375 0.03906,-0.613281 0.175781,-1.21875 0.40625,-1.8125 0.15625,-0.375 0.394531,-0.65625 0.71875,-0.84375 0.332031,-0.195312 0.691406,-0.273438 1.078125,-0.234375 0.363281,0.04297 0.679687,0.199219 0.953125,0.46875 0.269531,0.261719 0.441406,0.585937 0.515625,0.96875 z m 0,0"
           id="path98" />
      </g>
    </g>
  </g>
  <g
     fill="#5e3b2c"
     fill-opacity="1"
     id="g104"
     transform="translate(-38.943,-230.25)">
    <g
       transform="translate(173.16218,293.24998)"
       id="g103">
      <g
         id="g102">
        <path
           d="m 11.890625,-15.4375 c 0.445313,0.125 0.796875,0.355469 1.046875,0.6875 0.25,0.324219 0.351562,0.6875 0.3125,1.09375 -0.04297,0.429688 -0.214844,0.789062 -0.515625,1.078125 -0.304687,0.28125 -0.683594,0.433594 -1.140625,0.453125 -0.21875,0.02344 -0.445312,0.03125 -0.671875,0.03125 -0.21875,0 -0.445313,0 -0.671875,0 -0.117188,0 -0.226562,0 -0.328125,0 -0.105469,0 -0.210937,0 -0.3125,0 h -1.9375 l 0.046875,0.25 c 0.03125,0.261719 0.066406,0.523438 0.109375,0.78125 0.039063,0.25 0.070313,0.5 0.09375,0.75 0.082031,0.554688 0.160156,1.101562 0.234375,1.640625 0.070312,0.542969 0.132812,1.078125 0.1875,1.609375 0.070312,0.585938 0.140625,1.210938 0.203125,1.875 0.0625,0.667969 0.109375,1.351562 0.140625,2.046875 0.00781,0.5 -0.089844,1.03125 -0.296875,1.59375 -0.28125,0.699219 -0.808594,1.054687 -1.578125,1.0625 C 6.03125,-0.492188 5.503906,-0.84375 5.234375,-1.53125 c -0.25,-0.664062 -0.375,-1.328125 -0.375,-1.984375 0,-0.925781 0.00391,-1.847656 0.015625,-2.765625 0.019531,-0.914062 0.046875,-1.828125 0.078125,-2.734375 0,-0.363281 0,-0.726563 0,-1.09375 0.00781,-0.363281 0.019531,-0.734375 0.03125,-1.109375 0,-0.05078 -0.00781,-0.148438 -0.015625,-0.296875 L 4.953125,-11.875 4.25,-11.9375 C 4.019531,-11.957031 3.785156,-11.976562 3.546875,-12 c -0.242187,-0.01953 -0.480469,-0.04687 -0.71875,-0.07813 -0.125,-0.0078 -0.242187,-0.01953 -0.34375,-0.03125 -0.105469,-0.01953 -0.214844,-0.04687 -0.328125,-0.07813 -0.898438,-0.207031 -1.355469,-0.664062 -1.375,-1.375 C 0.75,-14.300781 1.195312,-14.804688 2.125,-15.078125 h 0.0625 c 0.039062,-0.03125 0.066406,-0.04687 0.078125,-0.04687 0.445313,-0.01953 0.894531,-0.05078 1.34375,-0.09375 0.445313,-0.03906 0.882813,-0.09375 1.3125,-0.15625 0.71875,-0.0625 1.4375,-0.128906 2.15625,-0.203125 0.71875,-0.07031 1.429687,-0.109375 2.140625,-0.109375 0.363281,0 0.722656,0.01172 1.078125,0.03125 0.363281,0.02344 0.726563,0.0625 1.09375,0.125 0.175781,0.02344 0.34375,0.05469 0.5,0.09375 z m 0,0"
           id="path101" />
      </g>
    </g>
  </g>
  <g
     fill="#5e3b2c"
     fill-opacity="1"
     id="g107"
     transform="translate(-38.943,-230.25)">
    <g
       transform="translate(188.66862,293.24998)"
       id="g106">
      <g
         id="g105">
        <path
           d="m 4.765625,-15.28125 0.140625,0.21875 c -0.34375,1.34375 -0.945312,2.980469 -1.796875,4.90625 h -1.40625 c 0.476563,-2.070312 0.816406,-3.78125 1.015625,-5.125 z m -0.125,2.234375 z m -0.046875,-5.75 z m 0,0"
           id="path104" />
      </g>
    </g>
  </g>
  <g
     fill="#5e3b2c"
     fill-opacity="1"
     id="g110"
     transform="translate(-38.943,-230.25)">
    <g
       transform="translate(196.6639,293.24998)"
       id="g109">
      <g
         id="g108">
        <path
           d="m 16.046875,-3.4375 c 0.0078,0.09375 0.03125,0.183594 0.0625,0.265625 -0.02344,0.523437 -0.140625,0.960937 -0.359375,1.3125 -0.210938,0.34375 -0.511719,0.574219 -0.90625,0.6875 -0.386719,0.125 -0.761719,0.109375 -1.125,-0.046875 C 13.351562,-1.375 13.054688,-1.628906 12.828125,-1.984375 12.585938,-2.390625 12.382812,-2.894531 12.21875,-3.5 c -0.05469,-0.226562 -0.152344,-0.429688 -0.296875,-0.609375 -0.136719,-0.175781 -0.386719,-0.273437 -0.75,-0.296875 -0.40625,-0.00781 -0.8125,-0.019531 -1.21875,-0.03125 C 9.554688,-4.457031 9.15625,-4.472656 8.75,-4.484375 8.21875,-4.515625 7.675781,-4.539062 7.125,-4.5625 6.582031,-4.582031 6.039062,-4.597656 5.5,-4.609375 c -0.148438,0 -0.304688,0.0625 -0.46875,0.1875 C 4.863281,-4.304688 4.738281,-4.1875 4.65625,-4.0625 4.539062,-3.875 4.429688,-3.675781 4.328125,-3.46875 4.222656,-3.269531 4.125,-3.070312 4.03125,-2.875 3.925781,-2.675781 3.820312,-2.472656 3.71875,-2.265625 3.613281,-2.054688 3.5,-1.851562 3.375,-1.65625 2.882812,-0.800781 2.289062,-0.53125 1.59375,-0.84375 1.3125,-0.945312 1.082031,-1.164062 0.90625,-1.5 0.738281,-1.84375 0.722656,-2.238281 0.859375,-2.6875 1.347656,-4.207031 1.976562,-5.929688 2.75,-7.859375 c 0.488281,-1.226563 1.101562,-2.613281 1.84375,-4.15625 0.207031,-0.4375 0.441406,-0.894531 0.703125,-1.375 0.257813,-0.476563 0.539063,-0.945313 0.84375,-1.40625 0.320313,-0.46875 0.789063,-0.875 1.40625,-1.21875 0.457031,-0.28125 0.898437,-0.421875 1.328125,-0.421875 0.738281,0 1.351562,0.414062 1.84375,1.234375 0.957031,1.648437 1.898438,3.367187 2.828125,5.15625 0.925781,1.78125 1.675781,3.65625 2.25,5.625 0.05078,0.179687 0.09766,0.351563 0.140625,0.515625 0.03906,0.167969 0.07813,0.324219 0.109375,0.46875 z m -9.3125,-4.71875 h 3.921875 l -2.25,-4.59375 z m 0,0"
           id="path107" />
      </g>
    </g>
  </g>
  <g
     fill="#5e3b2c"
     fill-opacity="1"
     id="g113"
     transform="translate(-38.943,-230.25)">
    <g
       transform="translate(214.99901,293.24998)"
       id="g112">
      <g
         id="g111">
        <path
           d="m 15.703125,-15.015625 c 0.08203,0.417969 0.125,0.867187 0.125,1.34375 l -0.03125,1.71875 c -0.03125,1.335937 -0.0625,2.683594 -0.09375,4.046875 -0.03125,1.355469 -0.07422,2.710938 -0.125,4.0625 -0.04297,1.460938 -0.46875,2.414062 -1.28125,2.859375 -0.78125,0.4375 -1.789063,0.304687 -3.015625,-0.40625 C 10.65625,-1.742188 10.078125,-2.175781 9.546875,-2.6875 9.023438,-3.195312 8.597656,-3.65625 8.265625,-4.0625 7.835938,-4.539062 7.4375,-5.039062 7.0625,-5.5625 6.6875,-6.09375 6.316406,-6.613281 5.953125,-7.125 5.796875,-7.332031 5.644531,-7.539062 5.5,-7.75 5.351562,-7.96875 5.203125,-8.179688 5.046875,-8.390625 L 4.96875,-8.53125 C 4.882812,-8.644531 4.789062,-8.757812 4.6875,-8.875 4.59375,-9 4.46875,-9.113281 4.3125,-9.21875 L 3.96875,-9.5 v 0.671875 c 0,0.085937 0,0.167969 0,0.25 0,0.074219 0,0.152344 0,0.234375 l -0.0625,1.359375 C 3.875,-6.117188 3.84375,-5.238281 3.8125,-4.34375 3.789062,-3.457031 3.757812,-2.582031 3.71875,-1.71875 3.695312,-1.394531 3.601562,-1.070312 3.4375,-0.75 3.226562,-0.320312 2.9375,-0.0976562 2.5625,-0.078125 2.195312,-0.0546875 1.894531,-0.25 1.65625,-0.65625 1.4375,-0.988281 1.3125,-1.316406 1.28125,-1.640625 1.007812,-3.828125 0.847656,-5.84375 0.796875,-7.6875 0.742188,-9.539062 0.789062,-11.3125 0.9375,-13 c 0.019531,-0.289062 0.097656,-0.597656 0.234375,-0.921875 0.226563,-0.570313 0.597656,-0.953125 1.109375,-1.140625 0.195312,-0.05078 0.390625,-0.07813 0.578125,-0.07813 0.332031,0 0.648437,0.09375 0.953125,0.28125 0.445312,0.25 0.828125,0.570313 1.140625,0.953125 0.34375,0.449219 0.6875,0.90625 1.03125,1.375 0.351563,0.460938 0.703125,0.914062 1.046875,1.359375 0.1875,0.25 0.375,0.5 0.5625,0.75 0.195312,0.25 0.390625,0.5 0.578125,0.75 0.34375,0.449219 0.679687,0.890625 1.015625,1.328125 0.332031,0.429688 0.664062,0.867188 1,1.3125 l 1.03125,1.328125 0.546875,-0.203125 0.01563,-0.390625 c 0.01953,-0.082031 0.03125,-0.164063 0.03125,-0.25 0,-0.082031 0.0039,-0.164063 0.01563,-0.25 0,-0.320313 0.0039,-0.640625 0.01563,-0.953125 0.01953,-0.320312 0.03125,-0.644531 0.03125,-0.96875 0.01953,-0.800781 0.04687,-1.601562 0.07813,-2.40625 0.03125,-0.8125 0.05469,-1.625 0.07813,-2.4375 0.03906,-0.613281 0.175781,-1.21875 0.40625,-1.8125 0.15625,-0.375 0.394531,-0.65625 0.71875,-0.84375 0.332031,-0.195312 0.691406,-0.273438 1.078125,-0.234375 0.363281,0.04297 0.679687,0.199219 0.953125,0.46875 0.269531,0.261719 0.441406,0.585937 0.515625,0.96875 z m 0,0"
           id="path110" />
      </g>
    </g>
  </g>
  <g
     fill="#5e3b2c"
     fill-opacity="1"
     id="g116"
     transform="translate(-38.943,-230.25)">
    <g
       transform="translate(233.08269,293.24998)"
       id="g115">
      <g
         id="g114">
        <path
           d="m 11.890625,-15.4375 c 0.445313,0.125 0.796875,0.355469 1.046875,0.6875 0.25,0.324219 0.351562,0.6875 0.3125,1.09375 -0.04297,0.429688 -0.214844,0.789062 -0.515625,1.078125 -0.304687,0.28125 -0.683594,0.433594 -1.140625,0.453125 -0.21875,0.02344 -0.445312,0.03125 -0.671875,0.03125 -0.21875,0 -0.445313,0 -0.671875,0 -0.117188,0 -0.226562,0 -0.328125,0 -0.105469,0 -0.210937,0 -0.3125,0 h -1.9375 l 0.046875,0.25 c 0.03125,0.261719 0.066406,0.523438 0.109375,0.78125 0.039063,0.25 0.070313,0.5 0.09375,0.75 0.082031,0.554688 0.160156,1.101562 0.234375,1.640625 0.070312,0.542969 0.132812,1.078125 0.1875,1.609375 0.070312,0.585938 0.140625,1.210938 0.203125,1.875 0.0625,0.667969 0.109375,1.351562 0.140625,2.046875 0.00781,0.5 -0.089844,1.03125 -0.296875,1.59375 -0.28125,0.699219 -0.808594,1.054687 -1.578125,1.0625 C 6.03125,-0.492188 5.503906,-0.84375 5.234375,-1.53125 c -0.25,-0.664062 -0.375,-1.328125 -0.375,-1.984375 0,-0.925781 0.00391,-1.847656 0.015625,-2.765625 0.019531,-0.914062 0.046875,-1.828125 0.078125,-2.734375 0,-0.363281 0,-0.726563 0,-1.09375 0.00781,-0.363281 0.019531,-0.734375 0.03125,-1.109375 0,-0.05078 -0.00781,-0.148438 -0.015625,-0.296875 L 4.953125,-11.875 4.25,-11.9375 C 4.019531,-11.957031 3.785156,-11.976562 3.546875,-12 c -0.242187,-0.01953 -0.480469,-0.04687 -0.71875,-0.07813 -0.125,-0.0078 -0.242187,-0.01953 -0.34375,-0.03125 -0.105469,-0.01953 -0.214844,-0.04687 -0.328125,-0.07813 -0.898438,-0.207031 -1.355469,-0.664062 -1.375,-1.375 C 0.75,-14.300781 1.195312,-14.804688 2.125,-15.078125 h 0.0625 c 0.039062,-0.03125 0.066406,-0.04687 0.078125,-0.04687 0.445313,-0.01953 0.894531,-0.05078 1.34375,-0.09375 0.445313,-0.03906 0.882813,-0.09375 1.3125,-0.15625 0.71875,-0.0625 1.4375,-0.128906 2.15625,-0.203125 0.71875,-0.07031 1.429687,-0.109375 2.140625,-0.109375 0.363281,0 0.722656,0.01172 1.078125,0.03125 0.363281,0.02344 0.726563,0.0625 1.09375,0.125 0.175781,0.02344 0.34375,0.05469 0.5,0.09375 z m 0,0"
           id="path113" />
      </g>
    </g>
  </g>
  <g
     fill="#5e3b2c"
     fill-opacity="1"
     id="g119"
     transform="translate(-38.943,-230.25)">
    <g
       transform="translate(248.58913,293.24998)"
       id="g118">
      <g
         id="g117">
        <path
           d="m 8.9375,-15.625 c 0.9375,0.230469 1.796875,0.511719 2.578125,0.84375 0.78125,0.335938 1.457031,0.773438 2.03125,1.3125 0.570313,0.53125 1.03125,1.210938 1.375,2.03125 0.34375,0.8125 0.546875,1.808594 0.609375,2.984375 -0.167969,1.875 -0.703125,3.367187 -1.609375,4.46875 -0.179687,0.199219 -0.355469,0.402344 -0.53125,0.609375 -0.167969,0.199219 -0.339844,0.398438 -0.515625,0.59375 l -0.40625,0.46875 c -1.335938,1.574219 -3.085938,2.2265625 -5.25,1.953125 C 7.0625,-0.367188 6.90625,-0.390625 6.75,-0.421875 6.59375,-0.453125 6.441406,-0.476562 6.296875,-0.5 L 6.203125,-0.53125 C 4.191406,-0.945312 2.710938,-1.992188 1.765625,-3.671875 1.234375,-4.585938 0.914062,-5.617188 0.8125,-6.765625 0.707031,-7.921875 0.828125,-9 1.171875,-10 c 1.144531,-3.289062 3.320313,-5.144531 6.53125,-5.5625 l 0.21875,-0.03125 c 0.113281,-0.01953 0.222656,-0.03516 0.328125,-0.04687 0.113281,-0.0078 0.226562,-0.01563 0.34375,-0.01563 0.125,0 0.238281,0.01172 0.34375,0.03125 z m 2.8125,7.515625 0.01563,-0.0625 v -0.0625 c -0.105469,-0.757813 -0.308594,-1.34375 -0.609375,-1.75 -0.292969,-0.414063 -0.765625,-0.757813 -1.421875,-1.03125 -0.605469,-0.25 -1.132813,-0.484375 -1.578125,-0.703125 -0.605469,-0.3125 -1.125,-0.414062 -1.5625,-0.3125 -0.429688,0.105469 -0.828125,0.433594 -1.203125,0.984375 -1.117187,1.6875 -1.386719,3.328125 -0.8125,4.921875 0.1875,0.53125 0.492187,0.980469 0.921875,1.34375 C 5.925786,-4.414062 6.42188,-4.175781 6.98438,-4.0625 7.179688,-4.019531 7.382812,-4 7.59375,-4 8.488281,-4 9.226562,-4.335938 9.8125,-5.015625 9.863281,-5.066406 9.914062,-5.113281 9.96875,-5.15625 c 0.050781,-0.050781 0.097656,-0.101562 0.140625,-0.15625 0.125,-0.132812 0.242187,-0.265625 0.359375,-0.390625 0.125,-0.132813 0.234375,-0.28125 0.328125,-0.4375 0.125,-0.226563 0.242187,-0.457031 0.359375,-0.6875 0.113281,-0.226563 0.21875,-0.460937 0.3125,-0.703125 0.03906,-0.09375 0.08203,-0.1875 0.125,-0.28125 0.03906,-0.101562 0.09375,-0.203125 0.15625,-0.296875 z m 0,0"
           id="path116" />
      </g>
    </g>
  </g>
  <g
     fill="#5e3b2c"
     fill-opacity="1"
     id="g122"
     transform="translate(-38.943,-230.25)">
    <g
       transform="translate(266.37946,293.24998)"
       id="g121">
      <g
         id="g120">
        <path
           d="m 15.703125,-15.015625 c 0.08203,0.417969 0.125,0.867187 0.125,1.34375 l -0.03125,1.71875 c -0.03125,1.335937 -0.0625,2.683594 -0.09375,4.046875 -0.03125,1.355469 -0.07422,2.710938 -0.125,4.0625 -0.04297,1.460938 -0.46875,2.414062 -1.28125,2.859375 -0.78125,0.4375 -1.789063,0.304687 -3.015625,-0.40625 C 10.65625,-1.742188 10.078125,-2.175781 9.546875,-2.6875 9.023438,-3.195312 8.597656,-3.65625 8.265625,-4.0625 7.835938,-4.539062 7.4375,-5.039062 7.0625,-5.5625 6.6875,-6.09375 6.316406,-6.613281 5.953125,-7.125 5.796875,-7.332031 5.644531,-7.539062 5.5,-7.75 5.351562,-7.96875 5.203125,-8.179688 5.046875,-8.390625 L 4.96875,-8.53125 C 4.882812,-8.644531 4.789062,-8.757812 4.6875,-8.875 4.59375,-9 4.46875,-9.113281 4.3125,-9.21875 L 3.96875,-9.5 v 0.671875 c 0,0.085937 0,0.167969 0,0.25 0,0.074219 0,0.152344 0,0.234375 l -0.0625,1.359375 C 3.875,-6.117188 3.84375,-5.238281 3.8125,-4.34375 3.789062,-3.457031 3.757812,-2.582031 3.71875,-1.71875 3.695312,-1.394531 3.601562,-1.070312 3.4375,-0.75 3.226562,-0.320312 2.9375,-0.0976562 2.5625,-0.078125 2.195312,-0.0546875 1.894531,-0.25 1.65625,-0.65625 1.4375,-0.988281 1.3125,-1.316406 1.28125,-1.640625 1.007812,-3.828125 0.847656,-5.84375 0.796875,-7.6875 0.742188,-9.539062 0.789062,-11.3125 0.9375,-13 c 0.019531,-0.289062 0.097656,-0.597656 0.234375,-0.921875 0.226563,-0.570313 0.597656,-0.953125 1.109375,-1.140625 0.195312,-0.05078 0.390625,-0.07813 0.578125,-0.07813 0.332031,0 0.648437,0.09375 0.953125,0.28125 0.445312,0.25 0.828125,0.570313 1.140625,0.953125 0.34375,0.449219 0.6875,0.90625 1.03125,1.375 0.351563,0.460938 0.703125,0.914062 1.046875,1.359375 0.1875,0.25 0.375,0.5 0.5625,0.75 0.195312,0.25 0.390625,0.5 0.578125,0.75 0.34375,0.449219 0.679687,0.890625 1.015625,1.328125 0.332031,0.429688 0.664062,0.867188 1,1.3125 l 1.03125,1.328125 0.546875,-0.203125 0.01563,-0.390625 c 0.01953,-0.082031 0.03125,-0.164063 0.03125,-0.25 0,-0.082031 0.0039,-0.164063 0.01563,-0.25 0,-0.320313 0.0039,-0.640625 0.01563,-0.953125 0.01953,-0.320312 0.03125,-0.644531 0.03125,-0.96875 0.01953,-0.800781 0.04687,-1.601562 0.07813,-2.40625 0.03125,-0.8125 0.05469,-1.625 0.07813,-2.4375 0.03906,-0.613281 0.175781,-1.21875 0.40625,-1.8125 0.15625,-0.375 0.394531,-0.65625 0.71875,-0.84375 0.332031,-0.195312 0.691406,-0.273438 1.078125,-0.234375 0.363281,0.04297 0.679687,0.199219 0.953125,0.46875 0.269531,0.261719 0.441406,0.585937 0.515625,0.96875 z m 0,0"
           id="path119" />
      </g>
    </g>
  </g>
  <g
     fill="#5e3b2c"
     fill-opacity="1"
     id="g125"
     transform="translate(-38.943,-230.25)">
    <g
       transform="translate(284.46314,293.24998)"
       id="g124">
      <g
         id="g123">
        <path
           d="m 4.984375,-12.4375 c 0.101563,1.480469 0.09375,2.964844 -0.03125,4.453125 -0.117187,1.492187 -0.257813,2.960937 -0.421875,4.40625 l -0.125,1.25 C 4.363281,-2.035156 4.25,-1.722656 4.0625,-1.390625 3.726562,-0.816406 3.28125,-0.53125 2.71875,-0.53125 c -0.511719,0 -0.914062,-0.265625 -1.203125,-0.796875 -0.367187,-0.65625 -0.570313,-1.382813 -0.609375,-2.1875 -0.042969,-0.550781 -0.0625,-1.101563 -0.0625,-1.65625 0,-0.5625 0.003906,-1.113281 0.015625,-1.65625 0,-0.226563 0,-0.457031 0,-0.6875 0,-0.226563 0,-0.460937 0,-0.703125 V -8.453125 H 0.78125 c 0.007812,-0.164063 0.015625,-0.332031 0.015625,-0.5 C 0.804688,-9.128906 0.8125,-9.304688 0.8125,-9.484375 0.84375,-9.992188 0.867188,-10.507812 0.890625,-11.03125 0.921875,-11.5625 0.957031,-12.09375 1,-12.625 c 0.0625,-0.65625 0.179688,-1.265625 0.359375,-1.828125 0.144531,-0.375 0.363281,-0.664063 0.65625,-0.875 0.300781,-0.21875 0.644531,-0.320313 1.03125,-0.3125 0.820313,0.04297 1.351563,0.449219 1.59375,1.21875 0.175781,0.574219 0.289063,1.234375 0.34375,1.984375 z m 0,0"
           id="path122" />
      </g>
    </g>
  </g>
  <g
     fill="#5e3b2c"
     fill-opacity="1"
     id="g128"
     transform="translate(-38.943,-230.25)">
    <g
       transform="translate(291.77694,293.24998)"
       id="g127">
      <g
         id="g126">
        <path
           d="m 8.9375,-15.625 c 0.9375,0.230469 1.796875,0.511719 2.578125,0.84375 0.78125,0.335938 1.457031,0.773438 2.03125,1.3125 0.570313,0.53125 1.03125,1.210938 1.375,2.03125 0.34375,0.8125 0.546875,1.808594 0.609375,2.984375 -0.167969,1.875 -0.703125,3.367187 -1.609375,4.46875 -0.179687,0.199219 -0.355469,0.402344 -0.53125,0.609375 -0.167969,0.199219 -0.339844,0.398438 -0.515625,0.59375 l -0.40625,0.46875 c -1.335938,1.574219 -3.085938,2.2265625 -5.25,1.953125 C 7.0625,-0.367188 6.90625,-0.390625 6.75,-0.421875 6.59375,-0.453125 6.441406,-0.476562 6.296875,-0.5 L 6.203125,-0.53125 C 4.191406,-0.945312 2.710938,-1.992188 1.765625,-3.671875 1.234375,-4.585938 0.914062,-5.617188 0.8125,-6.765625 0.707031,-7.921875 0.828125,-9 1.171875,-10 c 1.144531,-3.289062 3.320313,-5.144531 6.53125,-5.5625 l 0.21875,-0.03125 c 0.113281,-0.01953 0.222656,-0.03516 0.328125,-0.04687 0.113281,-0.0078 0.226562,-0.01563 0.34375,-0.01563 0.125,0 0.238281,0.01172 0.34375,0.03125 z m 2.8125,7.515625 0.01563,-0.0625 v -0.0625 c -0.105469,-0.757813 -0.308594,-1.34375 -0.609375,-1.75 -0.292969,-0.414063 -0.765625,-0.757813 -1.421875,-1.03125 -0.605469,-0.25 -1.132813,-0.484375 -1.578125,-0.703125 -0.605469,-0.3125 -1.125,-0.414062 -1.5625,-0.3125 -0.429688,0.105469 -0.828125,0.433594 -1.203125,0.984375 -1.117187,1.6875 -1.386719,3.328125 -0.8125,4.921875 0.1875,0.53125 0.492187,0.980469 0.921875,1.34375 C 5.925786,-4.414062 6.42188,-4.175781 6.98438,-4.0625 7.179688,-4.019531 7.382812,-4 7.59375,-4 8.488281,-4 9.226562,-4.335938 9.8125,-5.015625 9.863281,-5.066406 9.914062,-5.113281 9.96875,-5.15625 c 0.050781,-0.050781 0.097656,-0.101562 0.140625,-0.15625 0.125,-0.132812 0.242187,-0.265625 0.359375,-0.390625 0.125,-0.132813 0.234375,-0.28125 0.328125,-0.4375 0.125,-0.226563 0.242187,-0.457031 0.359375,-0.6875 0.113281,-0.226563 0.21875,-0.460937 0.3125,-0.703125 0.03906,-0.09375 0.08203,-0.1875 0.125,-0.28125 0.03906,-0.101562 0.09375,-0.203125 0.15625,-0.296875 z m 0,0"
           id="path125" />
      </g>
    </g>
  </g>
  <path
     fill="#5e3b2c"
     d="m 56.365594,67.863279 c 1.957031,1.31641 1.972656,2.52344 2.617187,4.14844 -0.972656,-1.11328 -2.035156,-0.76953 -3.09375,-3.37891 l -1.679687,2.35156 c 1.996094,-4.11328 0.515625,-6.34765 0.03906,-10.83593 -2.65625,5.27343 -5.957031,9.21093 -10.578125,12.95703 -5.871093,4.75781 -3.679687,4.10937 1.171875,4.10937 9.484375,0.0469 18.968754,0.0937 28.453124,0.14063 -3.38672,-1.49219 -7.97265,-2.26953 -11.66015,-3.80078 0.99609,-1.67969 2.25,-3.3711 4.72265,-4.41797 -2.72265,0.59375 -4.0664,1.35547 -5.14453,2.6289 -0.14062,-1.83984 -0.0352,-3.82421 1.26563,-5.97656 -1.800786,2.01563 -2.460942,3.39453 -2.613286,4.99219 -0.8125,-1.33984 -1.070313,-1.875 -3.5,-2.91797 z m -15.429688,0.0742 c 0.621094,-1.125 1.242188,-2.25 1.863282,-3.37109 -1.332032,6.0625 -4.78125,8.0625 -9.203126,9.27343 0.914063,-1.35547 2.121094,-2.63672 4.136719,-3.49218 -2.722656,0.59375 -4.066406,1.35546 -5.144531,2.6289 -0.140625,-1.83984 -0.03516,-3.82422 1.265625,-5.97656 -1.800781,2.01172 -2.460937,3.39453 -2.613281,4.98828 -0.8125,-1.33594 -1.992188,-2.29297 -4.421875,-3.33984 1.957031,1.3164 2.898437,2.94531 3.542969,4.57031 -1.066407,-1.21094 -2.410157,-1.94922 -5.058594,-2.52734 2.28125,0.96875 3.527344,2.48046 4.484375,4.02734 -2.898438,0.61328 -6.03125,1.25781 -9.15625,2.63672 6.140625,-0.0312 12.597656,1.24219 18.023437,-1.81641 19.371094,-10.92969 14.09375,-26.71484 33.890624,-41.33594 0.0937,-0.0703 0.043,-0.21484 -0.10547,-0.16015 -1.87109,0.6875 -4.30859,1.73828 -6.07422,2.17969 3.51172,-6.40625 4.42188,-9.41016 6.23829,-15.91407 0.0469,-0.17187 -0.15235,-0.64062 -0.53125,-0.0156 -4.03907,6.65625 -5.88282,13.61328 -12.156255,18.73437 -1.53125,-4.67968 -8.292969,-8.71875 -11.671875,-12.26172 1.222656,-1.17968 2.507812,-2.32031 3.804688,-3.42968 0.449218,-0.38282 0.429687,-1.32032 -0.421876,-0.75 -1.3125,0.88281 -2.789062,1.96093 -4.308593,3.17578 -1.171875,-1.32422 -1.855469,-2.38672 -1.613281,-3.06641 0.21875,-0.62109 -0.425782,-0.57422 -0.523438,-0.14062 -0.183594,0.8125 -0.07031,1.29687 -0.07031,1.79687 -0.804688,-0.57031 -1.660157,-1.16015 -2.558594,-1.76562 -0.855469,-0.57032 -0.847656,0.33593 -0.421875,0.75 4.847656,4.73437 14.214843,12.35937 14.496093,19.13672 0.417969,9.97656 -10.449218,13 -13.621093,6.08593 -0.429688,-0.93359 -0.824219,-0.74609 -0.636719,0.1836 0.453125,2.28515 1.792969,3.89843 2.09375,4.875 -9.6875,-12.16016 -9.398438,-13.89063 1.792969,-24.8711 -0.371094,-0.40234 -0.738281,-0.80468 -1.109375,-1.21093 -4.484375,3.54296 -9.851563,7.19531 -11.183594,11.27734 -6.273438,-5.12109 -7.816406,-11.86328 -11.855469,-18.51953 -0.378906,-0.625 -0.578125,-0.15625 -0.53125,0.0156 1.816407,6.50391 2.722657,9.50782 6.238281,15.91407 -1.765624,-0.44141 -4.203124,-1.49219 -6.074218,-2.17969 -0.148438,-0.0547 -0.195313,0.0859 -0.109375,0.16015 12.988281,10.66016 19.320312,18.20704 19.304687,33.73438 z m 0,0"
     fill-opacity="1"
     fill-rule="evenodd"
     id="path128" />
  <g
     clip-path="url(#031d8c1765)"
     id="g129"
     transform="translate(-38.943,-230.25)">
    <path
       fill="#537d0a"
       d="m 62.820312,251.58984 c -2.019531,-2.98437 -0.02344,-5.03125 2.789063,-6.17187 1.003906,2.86719 0.785156,5.71875 -2.789063,6.17187 z m 11.9375,11.37891 c -1.355468,-1.96094 -0.04687,-3.33203 1.808594,-4.10938 0.683594,1.89454 0.558594,3.78516 -1.808594,4.10938 z m 16.914063,-10.35938 c -0.710937,-2.27734 0.945313,-3.19531 2.949219,-3.3789 0.08594,2.01172 -0.597656,3.77344 -2.949219,3.3789 z m -0.507813,1.97266 c 2.117188,-2.60547 4.480469,-1.37891 6.261719,0.82031 -2.289062,1.67188 -4.890625,2.24219 -6.261719,-0.82031 z M 83.199219,252.75 c -1.621094,-0.125 -1.785157,-1.40625 -1.398438,-2.72656 1.296875,0.45312 2.242188,1.33203 1.398438,2.72656 z m 24.773441,1.01172 c -5.6836,-0.97266 -5.83985,-5.54688 -4.03907,-10.06641 4.42579,2.02344 7.47657,5.4336 4.03907,10.06641 z m 4.43359,-1.71094 c 1.12891,-3.42187 3.96484,-3.09375 6.59375,-1.56641 -1.66016,2.54688 -4.04687,4.11329 -6.59375,1.56641 z m -0.3125,12.10938 c -0.30078,-3.1836 2.125,-3.92579 4.80469,-3.61329 -0.44531,2.66016 -1.82813,4.78516 -4.80469,3.61329 z m 3.35156,0.90625 c 1.8125,-1.31641 3.125,-0.125 3.89844,1.60156 -1.76172,0.68359 -3.53516,0.60937 -3.89844,-1.60156 z M 61.679688,246.10156 c -2.480469,-2.02344 -1.304688,-4.26953 0.796874,-5.96094 1.582032,2.1836 2.125,4.66016 -0.796874,5.96094 z M 61,271.13281 c 1.515625,1.92188 0.269531,3.40235 -1.582031,4.31641 -0.820313,-1.89063 -0.8125,-3.82813 1.582031,-4.31641 z m -6.679688,-13.3125 c -1.253906,2.6875 -3.542968,2.14844 -5.542968,0.64453 1.601562,-1.92578 3.707031,-2.98047 5.542968,-0.64453 z m 11.753907,0.3711 c 0.695312,-1.86719 2.257812,-1.62891 3.679687,-0.72657 -0.972656,1.375 -2.328125,2.19141 -3.679687,0.72657 z m 33.40625,8.57812 c -1.644531,-2.47266 0.01172,-4.14453 2.339841,-5.07031 0.8086,2.37109 0.60938,4.71484 -2.339841,5.07031 z m -26.238281,11.67578 c -2.710938,3.97266 -6.230469,2.50391 -9.035157,-0.42969 3.070313,-2.65234 6.714844,-3.78125 9.035157,0.42969 z m -3.378907,3.53125 c 0.332031,2.6211 -1.652343,3.30078 -3.875,3.11719 0.292969,-2.21094 1.382813,-4.00391 3.875,-3.11719 z m 28.613281,-1.10547 c 3.621098,1.06641 3.371098,4.05469 1.855468,6.85547 -2.722655,-1.65625 -4.445311,-4.10547 -1.855468,-6.85547 z m 0.769532,-0.70312 c 0.167968,-3.04688 2.562496,-3.40235 5.046876,-2.73047 -0.79688,2.44922 -2.40625,4.25781 -5.046876,2.73047 z M 81.296875,242.05859 c -1.691406,1.51953 -2.578125,3.46485 -0.398437,5.05469 2.402343,-1.22656 1.832031,-3.28906 0.398437,-5.05469 z m -8.410156,10.32032 c 1.132812,1.14843 2.546875,1.71484 3.601562,0.11328 -0.953125,-1.66016 -2.394531,-1.1875 -3.601562,-0.11328 z M 94.25,243.91797 c -2.089844,0.89453 -3.554688,2.45312 -2.003906,4.66015 2.671875,-0.39453 2.796875,-2.52734 2.003906,-4.66015 z m -7.796875,0.62109 c -1.515625,0.55469 -2.609375,1.60938 -1.59375,3.23047 1.90625,-0.17969 2.074219,-1.69141 1.59375,-3.23047 z M 60.636719,255.3125 c -4.550781,3.54687 -8.035157,0.58203 -10.164063,-3.78906 4.472656,-1.91407 9.050782,-1.8711 10.164063,3.78906 z m 0,0"
       fill-opacity="1"
       fill-rule="evenodd"
       id="path129" />
  </g>
  <g
     clip-path="url(#ee34bd9046)"
     id="g130"
     transform="translate(-38.943,-230.25)">
    <path
       fill="#d4da30"
       d="m 109.82031,257.85547 c 1.40235,-4.25781 4.9336,-3.85156 8.20313,-1.94922 -2.0625,3.16797 -5.03516,5.12109 -8.20313,1.94922 z m 6.34766,-9.84375 c 0.043,-3.19531 2.53516,-3.67578 5.16406,-3.07813 -0.72656,2.59766 -2.33203,4.5586 -5.16406,3.07813 z m -4.40625,1.24219 c -1.44141,-2.85547 0.54297,-4.42969 3.14844,-5.1211 0.5625,2.63672 0.0508,5.1211 -3.14844,5.1211 z m -4.26953,6.01562 c -1.14844,3.52734 -4.07031,3.20313 -6.78125,1.63672 1.69922,-2.62891 4.15234,-4.25 6.78125,-1.63672 z m -9.605471,10.32422 c -2.113281,-0.33203 -2.195313,-2.02344 -1.550781,-3.70703 1.648437,0.72656 2.796874,1.97265 1.550781,3.70703 z m -2.894531,-13.16797 c 0.25,-2.37109 2.132812,-2.55859 4.046874,-1.9375 -0.714843,1.88281 -2.039062,3.23047 -4.046874,1.9375 z m -10.328126,-0.3125 c -1.273437,-1.52344 -0.292968,-2.75781 1.1875,-3.54297 0.710938,1.51563 0.75,3.09375 -1.1875,3.54297 z M 83.449219,249.875 c -1.5625,-0.45313 -1.464844,-1.74219 -0.816407,-2.95313 1.175782,0.70313 1.925782,1.75782 0.816407,2.95313 z m -2.585938,4.52734 c -1.40625,2.58985 -3.644531,1.91797 -5.535156,0.30469 1.703125,-1.80859 3.855469,-2.72656 5.535156,-0.30469 z m -9.027343,11.65625 c -2.765626,-1.60547 -1.960938,-4.01172 -0.148438,-6.01172 1.902344,1.90625 2.828125,4.26954 0.148438,6.01172 z m -6.507813,-9.03515 c -1.644531,-2.47266 0.01172,-4.14453 2.339844,-5.07032 0.808593,2.3711 0.609375,4.71875 -2.339844,5.07032 z m -5.207031,-7.50782 c -3.179688,-0.3164 -3.441406,-2.83984 -2.625,-5.41015 2.527344,0.94531 4.34375,2.71484 2.625,5.41015 z m 2.476562,10.95704 c -2.488281,3.45703 -5.570312,2.07421 -7.984375,-0.58594 2.773438,-2.27735 6.027344,-3.19531 7.984375,0.58594 z m -1.570312,5.39062 c 1.535156,3.45313 -0.902344,5.19531 -4.019532,5.85938 -0.503906,-3.14844 0.25,-6.04688 4.019532,-5.85938 z m 1.910156,2.06641 c 2.152344,1.15625 1.597656,3.01562 0.269531,4.58984 -1.507812,-1.41016 -2.273437,-3.19141 -0.269531,-4.58984 z m 11.199219,12.05859 c 2.179687,3.08203 0.136719,5.27344 -2.789063,6.53125 -1.113281,-2.98437 -0.945312,-5.97266 2.789063,-6.53125 z m 27.554691,1.56641 c 2.12109,-1.51563 3.64062,-0.10938 4.51953,1.90625 -2.0586,0.77734 -4.125,0.67187 -4.51953,-1.90625 z M 98.4375,246.67578 c -1.617188,0.043 -2.992188,0.6875 -2.542969,2.55078 1.863281,0.4375 2.503907,-0.9375 2.542969,-2.55078 z m -9.417969,-0.11328 c -1.417969,2.16406 -1.820312,4.56641 1.039063,5.67578 2.28125,-2.05078 1.050781,-4.15234 -1.039063,-5.67578 z m -14.285156,-0.78906 c -0.167969,3.60937 1.050781,6.77734 5.277344,6.08203 1.285156,-4.08203 -1.683594,-5.73438 -5.277344,-6.08203 z m 36.863285,19.63281 c 2.15625,-0.60938 2.97656,0.96484 3.10156,2.85156 -1.89063,0.0312 -3.53125,-0.65234 -3.10156,-2.85156 z m 0,0"
       fill-opacity="1"
       fill-rule="evenodd"
       id="path130" />
  </g>
  <path
     fill="#537d0a"
     d="m 47.33825,36.535159 h 4 v 4 h -4 z m 0,4.75 h 4 v 4 h -4 z m -4.75,0 h 4 v 4 h -4 z m 0,-4.75 h 4 v 4 h -4 z m 0,0"
     fill-opacity="1"
     fill-rule="evenodd"
     id="path131" />
  <rect
     style="opacity:0;fill:#000000;stroke-width:0.743424"
     id="rect131"
     width="278.3811"
     height="90.218246"
     x="-2.4488173e-08"
     y="-9.6819258e-07" />
</svg>
