<?xml version="1.0" encoding="UTF-8" standalone="no"?>
<svg
   width="300.00003"
   zoomAndPan="magnify"
   viewBox="0 0 225.00002 224.99999"
   height="300"
   preserveAspectRatio="xMidYMid"
   version="1.0"
   id="svg6"
   xmlns="http://www.w3.org/2000/svg"
   xmlns:svg="http://www.w3.org/2000/svg">
  <defs
     id="defs2">
    <clipPath
       id="ba49e97ed3">
      <path
         d="M 91.960938,97 H 278 V 223 H 91.960938 Z m 0,0"
         clip-rule="nonzero"
         id="path1" />
    </clipPath>
    <clipPath
       id="089ebcf20e">
      <path
         d="M 107,107 H 283.21094 V 220 H 107 Z m 0,0"
         clip-rule="nonzero"
         id="path2" />
    </clipPath>
  </defs>
  <rect
     x="-114.39525"
     width="450"
     fill="#ffffff"
     y="-114.27074"
     height="450"
     fill-opacity="1"
     id="rect2"
     style="opacity:0" />
  <rect
     x="-114.39525"
     width="450"
     fill="#ffffff"
     y="-114.27074"
     height="450"
     fill-opacity="1"
     id="rect3"
     style="opacity:0" />
  <path
     fill="#5e3b2c"
     d="m 137.59303,172.91284 c 5.16016,3.46875 5.19922,6.64453 6.89844,10.92188 -2.57031,-2.9336 -5.36719,-2.02344 -8.15235,-8.89844 l -4.41796,6.19922 c 5.2539,-10.83203 1.35156,-16.71484 0.0977,-28.53516 -6.99609,13.88282 -15.68359,24.25 -27.85547,34.11328 -15.457028,12.53125 -9.683588,10.83204 3.08985,10.83204 24.97265,0.11718 49.94531,0.24218 74.91797,0.35937 -8.91016,-3.92969 -20.98438,-5.96875 -30.69532,-10 2.6211,-4.42578 5.92188,-8.875 12.42969,-11.63672 -7.17187,1.56641 -10.71094,3.57031 -13.54687,6.92578 -0.36719,-4.85156 -0.0898,-10.07812 3.33593,-15.73828 -4.74218,5.30078 -6.48047,8.9336 -6.88672,13.14063 -2.14062,-3.52344 -2.8164,-4.9336 -9.21484,-7.6836 z m -40.624998,0.19141 c 1.63281,-2.95703 3.269528,-5.91406 4.906248,-8.87109 -3.507808,15.96484 -12.597658,21.23437 -24.238278,24.42187 2.41016,-3.57031 5.58984,-6.94922 10.89844,-9.19531 -7.17188,1.5625 -10.71094,3.5664 -13.55078,6.92187 -0.36329,-4.84765 -0.0898,-10.07422 3.33984,-15.74218 -4.74609,5.30078 -6.48047,8.9375 -6.89063,13.14062 -2.13281,-3.52734 -5.24609,-6.04687 -11.64453,-8.79687 5.16016,3.46875 7.63282,7.75781 9.32813,12.03515 -2.79688,-3.1914 -6.33594,-5.13281 -13.3125,-6.65234 6.0039,2.54297 9.28125,6.53125 11.80859,10.60547 -7.63672,1.60547 -15.88672,3.3125 -24.10937,6.9375 16.16015,-0.0781 33.16797,3.26953 47.45312,-4.78516 51.007808,-28.78125 37.113278,-70.34766 89.249998,-108.847657 0.24219,-0.17968 0.10547,-0.5625 -0.28125,-0.41796 -4.92969,1.8125 -11.34375,4.58203 -16,5.74218 9.25391,-16.87109 11.64453,-24.78515 16.42578,-41.90234 0.12891,-0.45703 -0.39453,-1.69141 -1.39062,-0.0508 -10.64063,17.52734 -15.5,35.85156 -32.01953,49.33594 -4.02344,-12.32032 -21.83203,-22.96094 -30.73438,-32.28907 3.22656,-3.10937 6.60938,-6.10937 10.02344,-9.02734 1.1875,-1.01172 1.13672,-3.48047 -1.10938,-1.97266 -3.45312,2.31641 -7.34765,5.15235 -11.34765,8.35938 -3.08203,-3.48828 -4.87891,-6.28125 -4.25,-8.07422 0.57812,-1.63281 -1.1211,-1.51953 -1.37891,-0.375 -0.48047,2.14453 -0.17969,3.41797 -0.17969,4.73047 -2.125,-1.50391 -4.36718,-3.05078 -6.74218,-4.64063 -2.246098,-1.50781 -2.226568,0.87891 -1.10938,1.97266 12.76563,12.46484 37.4336,32.54297 38.17578,50.386717 1.09375,26.26953 -27.51562,34.23047 -35.86718,16.02734 -1.12891,-2.46094 -2.17579,-1.96484 -1.6836,0.48438 1.19922,6.01172 4.72266,10.26172 5.51172,12.83203 -25.503908,-32.01953 -24.738278,-36.574217 4.72266,-65.484377 -0.97266,-1.0664 -1.94141,-2.125 -2.91407,-3.1914 -11.812498,9.32812 -25.941398,18.94922 -29.449208,29.69531 -16.51954,-13.48828 -20.58985,-31.24219 -31.22657,-48.76953 -0.99218,-1.64063 -1.51562,-0.40625 -1.39062,0.0508 4.78125,17.11719 7.16797,25.03125 16.42578,41.90234 -4.65234,-1.16015 -11.07031,-3.93359 -15.99609,-5.74218 -0.39453,-0.14063 -0.51563,0.22656 -0.28516,0.41796 34.19531,28.074217 50.87109,47.949217 50.83203,88.828127 z m 0,0"
     fill-opacity="1"
     fill-rule="evenodd"
     id="path3" />
  <g
     clip-path="url(#ba49e97ed3)"
     id="g4"
     transform="translate(-76.895248,-76.770747)">
    <path
       fill="#537d0a"
       d="m 128.9375,127.17578 c -5.3125,-7.85547 -0.0625,-13.24609 7.35156,-16.2539 2.63672,7.55468 2.0625,15.05859 -7.35156,16.2539 z m 31.44141,29.96875 c -3.57032,-5.16797 -0.12891,-8.77734 4.76171,-10.82031 1.79688,4.98828 1.46875,9.96094 -4.76171,10.82031 z m 44.53125,-27.28125 c -1.8711,-5.99609 2.48828,-8.41015 7.76953,-8.90234 0.22656,5.29687 -1.57422,9.94531 -7.76953,8.90234 z m -1.32813,5.19531 c 5.57031,-6.86718 11.79688,-3.63281 16.48438,2.16407 -6.02344,4.39453 -12.875,5.90234 -16.48438,-2.16407 z m -20.97656,-4.82422 c -4.27344,-0.33203 -4.70313,-3.70703 -3.6836,-7.17578 3.41797,1.19141 5.91016,3.50782 3.6836,7.17578 z m 65.23437,2.66407 c -14.97265,-2.56641 -15.375,-14.60938 -10.63281,-26.50781 11.64453,5.32812 19.67969,14.30859 10.63281,26.50781 z m 11.67578,-4.50782 c 2.96875,-9.00781 10.44141,-8.14843 17.35547,-4.12499 -4.36328,6.70703 -10.65234,10.83593 -17.35547,4.12499 z m -0.82421,31.89063 c -0.78907,-8.38281 5.59765,-10.33594 12.64843,-9.51953 -1.16797,7.00781 -4.8125,12.60156 -12.64843,9.51953 z m 8.82812,2.38672 c 4.76563,-3.47266 8.22656,-0.32813 10.26172,4.21094 -4.63672,1.80468 -9.3125,1.60937 -10.26172,-4.21094 z M 125.93359,112.72266 c -6.52343,-5.32422 -3.42968,-11.24219 2.10547,-15.69141 4.16797,5.75 5.58985,12.27344 -2.10547,15.69141 z m -1.78125,65.92187 c 3.98828,5.05078 0.70313,8.95703 -4.16406,11.36328 -2.16406,-4.98047 -2.14453,-10.08594 4.16406,-11.36328 z m -17.58984,-35.0625 c -3.30078,7.08203 -9.335938,5.65625 -14.601562,1.69531 4.222656,-5.0664 9.769532,-7.83984 14.601562,-1.69531 z m 30.94531,0.98047 c 1.83203,-4.92188 5.95313,-4.28906 9.6875,-1.91406 -2.55859,3.61718 -6.12109,5.76953 -9.6875,1.91406 z m 87.96875,22.58203 c -4.32812,-6.50781 0.0312,-10.91406 6.16016,-13.34766 2.1289,6.24219 1.60547,12.41797 -6.16016,13.34766 z m -69.08594,30.75 c -7.13671,10.46094 -16.41015,6.59375 -23.79687,-1.12891 8.08203,-6.98437 17.67969,-9.96484 23.79687,1.12891 z m -8.90234,9.29297 c 0.875,6.91406 -4.35156,8.69922 -10.20703,8.21094 0.77734,-5.82422 3.64453,-10.54688 10.20703,-8.21094 z m 75.34375,-2.90625 c 9.53906,2.8125 8.87891,10.67578 4.89063,18.05078 -7.16797,-4.35547 -11.70704,-10.80859 -4.89063,-18.05078 z m 2.02344,-1.84766 c 0.44531,-8.01953 6.75,-8.96093 13.29297,-7.1914 -2.09766,6.44531 -6.33203,11.21093 -13.29297,7.1914 z M 177.59375,102.07422 c -4.45703,4.00391 -6.78906,9.13281 -1.04688,13.32031 6.32032,-3.23437 4.82422,-8.66797 1.04688,-13.32031 z m -22.14063,27.18359 c 2.98438,3.02735 6.69922,4.50781 9.47657,0.30078 -2.5,-4.3789 -6.30469,-3.13281 -9.47657,-0.30078 z m 56.25391,-22.28515 c -5.50781,2.35937 -9.36719,6.46484 -5.27344,12.27343 7.02735,-1.03125 7.35547,-6.65625 5.27344,-12.27343 z m -20.53125,1.63672 c -3.99219,1.46875 -6.87891,4.23828 -4.19531,8.5039 5.01953,-0.47265 5.46094,-4.44531 4.19531,-8.5039 z m -67.98828,28.37109 c -11.97266,9.33984 -21.15234,1.53515 -26.761719,-9.98047 11.781249,-5.03516 23.832029,-4.92187 26.761719,9.98047 z m 0,0"
       fill-opacity="1"
       fill-rule="evenodd"
       id="path4" />
  </g>
  <g
     clip-path="url(#089ebcf20e)"
     id="g5"
     transform="translate(-76.895248,-76.770747)">
    <path
       fill="#d4da30"
       d="m 252.70703,143.67578 c 3.69141,-11.21484 12.99219,-10.14453 21.59766,-5.13281 -5.4336,8.34765 -13.25782,13.48828 -21.59766,5.13281 z m 16.71484,-25.91797 c 0.11329,-8.41797 6.67188,-9.67968 13.59766,-8.10937 -1.91406,6.83984 -6.14062,12.01172 -13.59766,8.10937 z m -11.60546,3.26563 c -3.80079,-7.51172 1.42968,-11.66406 8.29296,-13.48438 1.47657,6.94532 0.125,13.48438 -8.29296,13.48438 z m -11.24219,15.84765 c -3.02344,9.28907 -10.71875,8.42969 -17.85547,4.30469 4.46875,-6.91797 10.92969,-11.19141 17.85547,-4.30469 z m -25.29688,27.1836 c -5.55859,-0.875 -5.77734,-5.33203 -4.08203,-9.76563 4.33985,1.91406 7.36328,5.19531 4.08203,9.76563 z m -7.61718,-34.67578 c 0.66015,-6.2461 5.61718,-6.74219 10.65625,-5.10547 -1.87891,4.95703 -5.3711,8.51562 -10.65625,5.10547 z m -27.19532,-0.82032 c -3.35937,-4.01562 -0.77734,-7.26953 3.1211,-9.33593 1.87109,4 1.97656,8.14843 -3.1211,9.33593 z m -3.19531,-5.90234 c -4.125,-1.18359 -3.86328,-4.57812 -2.16016,-7.76953 3.10547,1.85547 5.07813,4.625 2.16016,7.76953 z m -6.82031,11.92578 c -3.69531,6.82422 -9.58985,5.04688 -14.57422,0.80078 4.48828,-4.76172 10.15234,-7.17969 14.57422,-0.80078 z m -23.76953,30.69141 c -7.28125,-4.22657 -5.16016,-10.5625 -0.39453,-15.82422 5.01953,5.01953 7.44921,11.23828 0.39453,15.82422 z m -17.12891,-23.78907 c -4.33203,-6.50781 0.0312,-10.91406 6.15625,-13.34765 2.125,6.23828 1.60156,12.41797 -6.15625,13.34765 z m -13.71094,-19.77343 c -8.3789,-0.83203 -9.07031,-7.47266 -6.91406,-14.24219 6.64844,2.49219 11.4375,7.14453 6.91406,14.24219 z m 6.51953,28.85937 c -6.55859,9.09766 -14.67578,5.46094 -21.03124,-1.53906 7.30859,-6.00781 15.87109,-8.41797 21.03124,1.53906 z m -4.13671,14.19922 c 4.03515,9.08594 -2.37891,13.67969 -10.58594,15.41797 -1.32813,-8.28125 0.65234,-15.91797 10.58594,-15.41797 z m 5.02734,5.4375 c 5.66797,3.04688 4.21094,7.9375 0.70703,12.08203 -3.96484,-3.70703 -5.98437,-8.39844 -0.70703,-12.08203 z m 29.49219,31.75391 c 5.74218,8.11718 0.35547,13.8789 -7.34766,17.19922 -2.92969,-7.85938 -2.48828,-15.73438 7.34766,-17.19922 z m 72.55078,4.125 c 5.58984,-3.9961 9.58984,-0.29297 11.90625,5.01953 -5.42188,2.04687 -10.86328,1.76953 -11.90625,-5.01953 z m -8.56641,-91.85156 c -4.25,0.11328 -7.87109,1.8164 -6.6914,6.71875 4.91015,1.15625 6.59765,-2.47266 6.6914,-6.71875 z m -24.79687,-0.29297 c -3.73438,5.69922 -4.79688,12.01953 2.73437,14.94531 6.00781,-5.39844 2.77344,-10.92969 -2.73437,-14.94531 z m -37.61328,-2.07813 c -0.4375,9.5 2.76953,17.84375 13.89062,16.01172 3.38281,-10.75 -4.42578,-15.10156 -13.89062,-16.01172 z m 97.07031,51.69531 c 5.67187,-1.60547 7.83203,2.54688 8.16015,7.51172 -4.97265,0.082 -9.28906,-1.72265 -8.16015,-7.51172 z m 0,0"
       fill-opacity="1"
       fill-rule="evenodd"
       id="path5" />
  </g>
  <path
     fill="#537d0a"
     d="m 113.8235,90.420663 h 10.53125 V 100.95191 H 113.8235 Z m 0,12.511707 h 10.53125 v 10.53125 H 113.8235 Z m -12.50781,0 h 10.53125 v 10.53125 h -10.53125 z m 0,-12.511707 h 10.53125 v 10.531247 h -10.53125 z m 0,0"
     fill-opacity="1"
     fill-rule="evenodd"
     id="path6" />
  <rect
     style="opacity:0;fill:#000000;stroke-width:0.75"
     id="rect6"
     width="225"
     height="225"
     x="-6.4312871e-08"
     y="5.13861e-06" />
</svg>
