<?xml version="1.0" encoding="UTF-8" standalone="no"?>
<svg
   width="270"
   zoomAndPan="magnify"
   viewBox="0 0 202.5 202.5"
   height="270"
   preserveAspectRatio="xMidYMid"
   version="1.0"
   id="svg66"
   xmlns="http://www.w3.org/2000/svg"
   xmlns:svg="http://www.w3.org/2000/svg">
  <defs
     id="defs2">
    <clipPath
       id="5f9898e4c2">
      <path
         d="M 118.91797,107.47656 H 253 V 198 H 118.91797 Z m 0,0"
         clip-rule="nonzero"
         id="path1" />
    </clipPath>
    <clipPath
       id="b59961e67e">
      <path
         d="m 129,115 h 127.16797 v 81 H 129 Z m 0,0"
         clip-rule="nonzero"
         id="path2" />
    </clipPath>
  </defs>
  <rect
     x="-122.45325"
     width="450"
     fill="#ffffff"
     y="-132.444"
     height="450"
     fill-opacity="1"
     id="rect2"
     style="opacity:0" />
  <rect
     x="-122.45325"
     width="450"
     fill="#ffffff"
     y="-132.444"
     height="450"
     fill-opacity="1"
     id="rect3"
     style="opacity:0" />
  <path
     fill="#5e3b2c"
     d="m 121.91394,122.14975 c 3.70703,2.48828 3.73437,4.76953 4.95312,7.83984 -1.84375,-2.10547 -3.85156,-1.45312 -5.85156,-6.38672 l -3.16797,4.44922 c 3.76953,-7.77343 0.96875,-12 0.0664,-20.48437 -5.01953,9.96484 -11.25782,17.40625 -19.992186,24.48828 -11.09766,8.99609 -6.95313,7.77344 2.214836,7.77344 17.92578,0.0859 35.85157,0.17578 53.78125,0.25781 -6.39843,-2.82031 -15.0664,-4.28516 -22.03515,-7.17578 1.8789,-3.17578 4.25,-6.3711 8.92187,-8.35156 -5.14844,1.12109 -7.6875,2.5625 -9.72656,4.96875 -0.26172,-3.48047 -0.0625,-7.23438 2.39844,-11.29688 -3.40625,3.80469 -4.65235,6.41406 -4.94532,9.43359 -1.53515,-2.53125 -2.01953,-3.54296 -6.61718,-5.51562 z m -29.160156,0.13672 c 1.17188,-2.1211 2.34766,-4.2461 3.52344,-6.36719 -2.51953,11.46094 -9.04297,15.24219 -17.39844,17.53125 1.73047,-2.5625 4.01172,-4.98828 7.82031,-6.60156 -5.14843,1.12109 -7.6875,2.55859 -9.72265,4.96875 -0.26563,-3.48047 -0.0664,-7.23047 2.39453,-11.30078 -3.40625,3.80468 -4.65235,6.41797 -4.94531,9.43359 -1.53125,-2.53125 -3.76563,-4.33984 -8.35938,-6.31641 3.70313,2.49219 5.48047,5.57032 6.69922,8.64063 -2.01172,-2.29297 -4.55078,-3.68359 -9.55859,-4.77734 4.30859,1.82812 6.66015,4.6875 8.47656,7.61328 -5.48047,1.15234 -11.40625,2.3789 -17.30469,4.98047 11.59766,-0.0547 23.80469,2.34765 34.0625,-3.4336 36.613276,-20.66015 26.640626,-50.496089 64.062496,-78.132809 0.17578,-0.12891 0.0781,-0.40234 -0.19922,-0.30078 -3.53906,1.30078 -8.14453,3.28906 -11.48437,4.12109 6.64062,-12.10937 8.35547,-17.79297 11.78906,-30.07812 0.0898,-0.32813 -0.28516,-1.21485 -1,-0.0352 -7.63672,12.58203 -11.125,25.73438 -22.98047,35.41406 -2.89062,-8.84375 -15.67578,-16.48047 -22.0625,-23.17578 2.31641,-2.23437 4.74219,-4.38672 7.19141,-6.48047 0.85547,-0.73047 0.8164,-2.5 -0.79688,-1.41797 -2.47656,1.66407 -5.26953,3.69922 -8.14453,6 -2.21094,-2.5039 -3.5,-4.50781 -3.05078,-5.79296 0.41406,-1.17579 -0.80469,-1.09375 -0.98828,-0.26954 -0.34375,1.53907 -0.12891,2.45313 -0.12891,3.39454 -1.527336,-1.07813 -3.136716,-2.19141 -4.839836,-3.33204 -1.61328,-1.08203 -1.60156,0.63282 -0.79688,1.41797 9.164066,8.94532 26.871096,23.35547 27.402346,36.16407 0.78515,18.85937 -19.75,24.57421 -25.746096,11.50781 -0.80859,-1.76563 -1.55859,-1.41016 -1.20703,0.34765 0.85938,4.31641 3.39063,7.36719 3.95703,9.21094 -18.30859,-22.98437 -17.75781,-26.2539 3.390626,-47.00781 -0.69922,-0.76172 -1.39453,-1.52344 -2.09375,-2.28906 -8.476556,6.69531 -18.621096,13.60156 -21.140626,21.3164 -11.85547,-9.67968 -14.77734,-22.42578 -22.41015,-35.00781 -0.71485,-1.17969 -1.08985,-0.29297 -1,0.0352 3.42968,12.28515 5.14453,17.96875 11.79297,30.07812 -3.34375,-0.83203 -7.94922,-2.82422 -11.48829,-4.12109 -0.28125,-0.10156 -0.36718,0.16406 -0.20312,0.30078 24.54687,20.15234 36.51953,34.41797 36.48828,63.761719 z m 0,0"
     fill-opacity="1"
     fill-rule="evenodd"
     id="path3" />
  <g
     clip-path="url(#5f9898e4c2)"
     id="g4"
     transform="translate(-84.953246,-94.943999)">
    <path
       fill="#537d0a"
       d="m 145.46094,129.15625 c -3.8125,-5.64062 -0.043,-9.50781 5.27734,-11.66797 1.89063,5.42188 1.47656,10.80859 -5.27734,11.66797 z m 22.57031,21.50781 c -2.56641,-3.70703 -0.0937,-6.29687 3.41406,-7.76172 1.29297,3.57813 1.05469,7.14844 -3.41406,7.76172 z m 31.96484,-19.57812 c -1.34375,-4.30469 1.78516,-6.03906 5.57422,-6.39453 0.16406,3.80468 -1.1289,7.14062 -5.57422,6.39453 z m -0.95703,3.72656 c 4,-4.92578 8.46875,-2.60938 11.83203,1.55469 -4.32031,3.15234 -9.23828,4.23828 -11.83203,-1.55469 z m -15.05469,-3.46094 c -3.07031,-0.23828 -3.3789,-2.66406 -2.64453,-5.15234 2.45313,0.85547 4.24219,2.51562 2.64453,5.15234 z m 46.82422,1.91016 c -10.74609,-1.83985 -11.03515,-10.48438 -7.63281,-19.02734 8.36328,3.82421 14.12891,10.26953 7.63281,19.02734 z m 8.38282,-3.23438 c 2.1289,-6.46875 7.49609,-5.85156 12.45703,-2.96093 -3.12891,4.8125 -7.64453,7.77734 -12.45703,2.96093 z m -0.59375,22.89063 c -0.5625,-6.01563 4.01953,-7.41797 9.08203,-6.83203 -0.83985,5.02734 -3.45703,9.04297 -9.08203,6.83203 z m 6.33984,1.71484 c 3.42187,-2.49609 5.90625,-0.23437 7.36328,3.02344 -3.32812,1.29297 -6.68359,1.15234 -7.36328,-3.02344 z M 143.30469,118.78125 c -4.6836,-3.82031 -2.46485,-8.07031 1.51172,-11.26562 2.99218,4.1289 4.01171,8.8125 -1.51172,11.26562 z m -1.28125,47.31641 c 2.86328,3.6289 0.5039,6.43359 -2.98828,8.16015 -1.55079,-3.57422 -1.53907,-7.24219 2.98828,-8.16015 z m -12.625,-25.16407 c -2.36719,5.08203 -6.69922,4.0586 -10.48047,1.21485 3.03125,-3.63672 7.01172,-5.62891 10.48047,-1.21485 z m 22.21484,0.70313 c 1.3125,-3.53516 4.26953,-3.07813 6.95313,-1.375 -1.83594,2.59765 -4.39454,4.14062 -6.95313,1.375 z m 63.14453,16.21094 c -3.10547,-4.67188 0.0234,-7.83594 4.42188,-9.58204 1.52734,4.48047 1.15234,8.91407 -4.42188,9.58204 z m -49.59375,22.07031 c -5.12109,7.51172 -11.77734,4.73437 -17.07812,-0.8086 5.79687,-5.01562 12.6875,-7.15234 17.07812,0.8086 z m -6.38672,6.67187 c 0.62891,4.96094 -3.125,6.24219 -7.32812,5.89453 0.55859,-4.18359 2.61719,-7.57031 7.32812,-5.89453 z m 54.08203,-2.08593 c 6.84766,2.01562 6.375,7.66015 3.50782,12.95703 -5.14453,-3.12891 -8.40235,-7.76172 -3.50782,-12.95703 z m 1.45313,-1.32813 c 0.32031,-5.75781 4.84375,-6.43359 9.53906,-5.16016 -1.5039,4.625 -4.54297,8.04688 -9.53906,5.16016 z m -33.92578,-72.03906 c -3.19922,2.875 -4.8711,6.55469 -0.75391,9.5625 4.53906,-2.32422 3.46485,-6.22266 0.75391,-9.5625 z m -15.89453,19.51172 c 2.14453,2.17187 4.80859,3.23828 6.80468,0.21484 -1.79687,-3.14062 -4.52734,-2.24609 -6.80468,-0.21484 z m 40.3789,-15.9961 c -3.95312,1.69532 -6.72265,4.64063 -3.78515,8.8125 5.04687,-0.74218 5.28125,-4.78125 3.78515,-8.8125 z m -14.73828,1.17579 c -2.86328,1.05468 -4.93359,3.04296 -3.01172,6.10546 3.60547,-0.33984 3.92188,-3.19531 3.01172,-6.10546 z m -48.80078,20.36328 c -8.59375,6.70703 -15.18359,1.10156 -19.21094,-7.16407 8.45703,-3.61328 17.10938,-3.53125 19.21094,7.16407 z m 0,0"
       fill-opacity="1"
       fill-rule="evenodd"
       id="path4" />
  </g>
  <g
     clip-path="url(#b59961e67e)"
     id="g5"
     transform="translate(-84.953246,-94.943999)">
    <path
       fill="#d4da30"
       d="m 234.30469,141 c 2.64843,-8.05078 9.32422,-7.28125 15.5,-3.6875 -3.89844,5.99219 -9.51563,9.68359 -15.5,3.6875 z m 11.99609,-18.60547 c 0.082,-6.04297 4.78906,-6.94531 9.76172,-5.82031 -1.375,4.91016 -4.40625,8.62109 -9.76172,5.82031 z m -8.33203,2.34375 c -2.72656,-5.39062 1.02734,-8.37109 5.95703,-9.67969 1.05859,4.98438 0.0898,9.67969 -5.95703,9.67969 z m -8.06641,11.375 c -2.17187,6.66797 -7.69531,6.05078 -12.8164,3.09375 3.20703,-4.96875 7.84375,-8.03516 12.8164,-3.09375 z M 211.74219,155.625 c -3.99219,-0.625 -4.14453,-3.82422 -2.92969,-7.00781 3.11719,1.37109 5.28516,3.73047 2.92969,7.00781 z m -5.46485,-24.88672 c 0.46875,-4.48437 4.03125,-4.83984 7.64844,-3.66406 -1.35156,3.55469 -3.85937,6.10937 -7.64844,3.66406 z m -19.52343,-0.58984 c -2.41016,-2.88281 -0.5586,-5.21875 2.24218,-6.70313 1.34375,2.8711 1.41797,5.85156 -2.24218,6.70313 z m -2.29297,-4.23828 c -2.96094,-0.85157 -2.77344,-3.28516 -1.55078,-5.57813 2.22656,1.33203 3.64453,3.32031 1.55078,5.57813 z m -4.89453,8.5625 c -2.65625,4.89843 -6.88672,3.62109 -10.46485,0.57421 3.22266,-3.41796 7.28906,-5.15234 10.46485,-0.57421 z M 162.5,156.50391 c -5.22266,-3.03516 -3.70313,-7.58204 -0.28125,-11.36329 3.60156,3.60547 5.34766,8.07032 0.28125,11.36329 z m -12.29297,-17.07813 c -3.10937,-4.67187 0.0195,-7.83203 4.41797,-9.58203 1.52734,4.48047 1.15234,8.91406 -4.41797,9.58203 z m -9.84375,-14.1914 c -6.01172,-0.59766 -6.50781,-5.36719 -4.96094,-10.22657 4.77344,1.78907 8.21094,5.12891 4.96094,10.22657 z m 4.67969,20.71484 c -4.70703,6.52734 -10.53125,3.91797 -15.09766,-1.10547 5.25,-4.3125 11.39453,-6.04297 15.09766,1.10547 z m -2.96875,10.1914 c 2.89844,6.52344 -1.70703,9.81641 -7.59766,11.06641 -0.95312,-5.94531 0.46875,-11.42578 7.59766,-11.06641 z m 3.60937,3.90235 c 4.07032,2.1875 3.02344,5.69922 0.50782,8.67187 -2.84766,-2.66015 -4.29688,-6.02734 -0.50782,-8.67187 z m 21.16797,22.79297 c 4.125,5.82812 0.25781,9.96484 -5.26953,12.34765 -2.10547,-5.64453 -1.78906,-11.29687 5.26953,-12.34765 z m 52.08203,2.96093 c 4.01172,-2.86718 6.88282,-0.20703 8.54297,3.60157 -3.89062,1.47265 -7.79687,1.27343 -8.54297,-3.60157 z m -6.14843,-65.93359 c -3.05469,0.0859 -5.65235,1.30469 -4.80469,4.82422 3.52344,0.83203 4.73437,-1.77344 4.80469,-4.82422 z m -17.80079,-0.20703 c -2.67968,4.08984 -3.44531,8.62891 1.96094,10.72656 4.3125,-3.875 1.99219,-7.84765 -1.96094,-10.72656 z m -27,-1.49219 c -0.3164,6.82032 1.98829,12.8086 9.96875,11.49219 2.42969,-7.71484 -3.17578,-10.83984 -9.96875,-11.49219 z m 69.67579,37.10547 c 4.07421,-1.15234 5.625,1.82813 5.85937,5.39453 -3.57031,0.0586 -6.66797,-1.23828 -5.85937,-5.39453 z m 0,0"
       fill-opacity="1"
       fill-rule="evenodd"
       id="path5" />
  </g>
  <path
     fill="#537d0a"
     d="m 104.85534,62.934911 h 7.5586 v 7.55859 h -7.5586 z m 0,8.98046 h 7.5586 v 7.5586 h -7.5586 z m -8.976556,0 h 7.554686 v 7.5586 h -7.554686 z m 0,-8.98046 h 7.554686 v 7.55859 h -7.554686 z m 0,0"
     fill-opacity="1"
     fill-rule="evenodd"
     id="path6" />
  <g
     fill="#5e3b2c"
     fill-opacity="1"
     id="g9"
     transform="translate(-84.953246,-94.943999)">
    <g
       transform="translate(133.22077,261.92666)"
       id="g8">
      <g
         id="g7">
        <path
           d="m 12.828125,-5.734375 c 0.101563,1.28125 -0.265625,2.417969 -1.109375,3.40625 -0.355469,0.4375 -0.699219,0.742187 -1.03125,0.90625 C 8.007812,0.046875 5.457031,0.375 3.03125,-0.4375 2.53125,-0.613281 2.023438,-0.921875 1.515625,-1.359375 1.066406,-1.722656 0.929688,-2.234375 1.109375,-2.890625 1.210938,-3.316406 1.273438,-3.769531 1.296875,-4.25 1.304688,-5.082031 1.316406,-5.910156 1.328125,-6.734375 1.347656,-7.566406 1.363281,-8.394531 1.375,-9.21875 1.382812,-9.875 1.394531,-10.535156 1.40625,-11.203125 1.414062,-11.867188 1.425781,-12.53125 1.4375,-13.1875 v -0.09375 c 0.00781,-0.144531 0,-0.300781 -0.03125,-0.46875 C 1.375,-13.914062 1.234375,-14.070312 0.984375,-14.21875 0.847656,-14.300781 0.769531,-14.414062 0.75,-14.5625 c -0.011719,-0.175781 0.046875,-0.332031 0.171875,-0.46875 l 0.1875,-0.1875 c 0.226563,-0.207031 0.46875,-0.421875 0.71875,-0.640625 0.25,-0.226563 0.507813,-0.375 0.78125,-0.4375 1.5625,-0.40625 3.078125,-0.632813 4.546875,-0.6875 0.070312,-0.01953 0.160156,-0.03125 0.265625,-0.03125 1.78125,0 3.050781,0.796875 3.8125,2.390625 0.6875,1.429688 0.476563,2.71875 -0.625,3.875 -0.05469,0.05469 -0.117187,0.109375 -0.1875,0.171875 -0.0625,0.05469 -0.136719,0.105469 -0.21875,0.15625 -0.04297,0.02344 -0.08594,0.05469 -0.125,0.09375 -0.04297,0.03125 -0.085937,0.05859 -0.125,0.07813 l -0.234375,0.1875 0.234375,0.15625 c 0.082031,0.074219 0.160156,0.136719 0.234375,0.1875 0.07031,0.054688 0.144531,0.105469 0.21875,0.15625 0.132812,0.117188 0.257812,0.21875 0.375,0.3125 0.113281,0.085938 0.222656,0.171875 0.328125,0.265625 1.019531,0.855469 1.59375,1.9375 1.71875,3.25 z m -8.53125,-5.484375 v 0.265625 l 0.265625,-0.0625 c 0.132812,-0.01953 0.257812,-0.04687 0.375,-0.07813 0.113281,-0.03906 0.234375,-0.07031 0.359375,-0.09375 0.269531,-0.05078 0.53125,-0.109375 0.78125,-0.171875 0.257813,-0.07031 0.507813,-0.15625 0.75,-0.25 0.394531,-0.15625 0.675781,-0.304687 0.84375,-0.453125 0.175781,-0.144531 0.3125,-0.269531 0.40625,-0.375 L 8.1875,-12.59375 c 0.070312,-0.144531 0.144531,-0.3125 0.21875,-0.5 0.082031,-0.1875 0.085938,-0.378906 0.015625,-0.578125 -0.0625,-0.207031 -0.21875,-0.367187 -0.46875,-0.484375 -0.25,-0.125 -0.621094,-0.21875 -1.109375,-0.28125 -0.230469,-0.01953 -0.453125,-0.02344 -0.671875,-0.01563 -0.210937,0.01172 -0.464844,0.04687 -0.765625,0.109375 -0.292969,0.0625 -0.667969,0.179688 -1.125,0.34375 L 4.125,-13.9375 v 0.15625 c 0.00781,0.304688 0.023438,0.554688 0.046875,0.75 0.019531,0.1875 0.035156,0.371094 0.046875,0.546875 0.019531,0.179687 0.035156,0.359375 0.046875,0.546875 0.00781,0.1875 0.019531,0.429688 0.03125,0.71875 z m 5.4375,5.921875 c 0.09375,-0.65625 -0.15625,-1.257813 -0.75,-1.8125 -0.375,-0.363281 -0.777344,-0.613281 -1.203125,-0.75 C 7.363281,-7.992188 6.9375,-8.0625 6.5,-8.0625 6.070312,-8.0625 5.644531,-8.039062 5.21875,-8 L 4.8125,-7.984375 c -0.136719,0.023437 -0.246094,0.117187 -0.328125,0.28125 -0.085937,0.15625 -0.132813,0.28125 -0.140625,0.375 0,0.199219 0,0.402344 0,0.609375 0,0.210938 0,0.417969 0,0.625 v 0.4375 l 0.015625,0.21875 c 0,0.054688 0,0.101562 0,0.140625 0,0.042969 0,0.085937 0,0.125 0,0.1875 0,0.375 0,0.5625 0,0.179687 -0.00781,0.359375 -0.015625,0.546875 -0.03125,0.53125 0.222656,0.824219 0.765625,0.875 0.175781,0.011719 0.34375,0.015625 0.5,0.015625 1.007813,0 2.019531,-0.25 3.03125,-0.75 0.632813,-0.3125 1,-0.769531 1.09375,-1.375 z m 0,0"
           id="path7" />
      </g>
    </g>
  </g>
  <g
     fill="#5e3b2c"
     fill-opacity="1"
     id="g12"
     transform="translate(-84.953246,-94.943999)">
    <g
       transform="translate(148.2322,261.92666)"
       id="g11">
      <g
         id="g10">
        <path
           d="m 8.609375,-15.046875 c 0.894531,0.210937 1.71875,0.476563 2.46875,0.796875 0.757813,0.324219 1.414063,0.746094 1.96875,1.265625 0.550781,0.523437 0.992187,1.179687 1.328125,1.96875 0.332031,0.78125 0.53125,1.742187 0.59375,2.875 -0.15625,1.804687 -0.671875,3.234375 -1.546875,4.296875 -0.179687,0.1875 -0.351563,0.382812 -0.515625,0.578125 -0.15625,0.199219 -0.324219,0.390625 -0.5,0.578125 l -0.390625,0.46875 c -1.292969,1.511719 -2.980469,2.1367188 -5.0625,1.875 C 6.804688,-0.351562 6.65625,-0.367188 6.5,-0.390625 6.351562,-0.421875 6.207031,-0.453125 6.0625,-0.484375 L 5.984375,-0.5 c -1.9375,-0.40625 -3.367187,-1.414062 -4.28125,-3.03125 -0.523437,-0.894531 -0.835937,-1.894531 -0.9375,-3 -0.09375,-1.101562 0.023437,-2.140625 0.359375,-3.109375 1.101562,-3.164063 3.203125,-4.945313 6.296875,-5.34375 l 0.21875,-0.04687 c 0.101563,-0.0078 0.207031,-0.01953 0.3125,-0.03125 0.113281,-0.01953 0.222656,-0.03125 0.328125,-0.03125 0.125,0 0.234375,0.01563 0.328125,0.04687 z M 11.3125,-7.8125 11.328125,-7.875 V -7.9375 C 11.234375,-8.664062 11.039062,-9.226562 10.75,-9.625 c -0.28125,-0.394531 -0.742188,-0.722656 -1.375,-0.984375 -0.585938,-0.238281 -1.089844,-0.46875 -1.515625,-0.6875 -0.585937,-0.289063 -1.085937,-0.382813 -1.5,-0.28125 -0.417969,0.09375 -0.808594,0.40625 -1.171875,0.9375 -1.074219,1.625 -1.335938,3.203125 -0.78125,4.734375 0.1875,0.523438 0.484375,0.960938 0.890625,1.3125 0.414063,0.34375 0.894531,0.570312 1.4375,0.671875 0.1875,0.042969 0.378906,0.0625 0.578125,0.0625 0.863281,0 1.578125,-0.320313 2.140625,-0.96875 C 9.503906,-4.878906 9.550781,-4.925781 9.59375,-4.96875 9.644531,-5.019531 9.691406,-5.066406 9.734375,-5.109375 9.859375,-5.242188 9.976562,-5.375 10.09375,-5.5 c 0.113281,-0.132812 0.21875,-0.273438 0.3125,-0.421875 0.125,-0.21875 0.238281,-0.4375 0.34375,-0.65625 0.101562,-0.21875 0.203125,-0.441406 0.296875,-0.671875 0.03906,-0.09375 0.08203,-0.1875 0.125,-0.28125 0.03906,-0.09375 0.08594,-0.1875 0.140625,-0.28125 z m 0,0"
           id="path9" />
      </g>
    </g>
  </g>
  <g
     fill="#5e3b2c"
     fill-opacity="1"
     id="g15"
     transform="translate(-84.953246,-94.943999)">
    <g
       transform="translate(165.38516,261.92666)"
       id="g14">
      <g
         id="g13">
        <path
           d="m 10.828125,-4.875 c 0.238281,0.960938 0.160156,1.820312 -0.234375,2.578125 -0.386719,0.75 -1.023438,1.273437 -1.90625,1.5625 -1,0.355469 -2.199219,0.558594 -3.59375,0.609375 C 4.457031,-0.09375 3.894531,-0.234375 3.40625,-0.546875 2.914062,-0.867188 2.519531,-1.191406 2.21875,-1.515625 1.894531,-1.878906 1.695312,-2.269531 1.625,-2.6875 1.550781,-3.101562 1.613281,-3.476562 1.8125,-3.8125 c 0.320312,-0.570312 0.859375,-0.859375 1.609375,-0.859375 0.195313,0 0.394531,0.023437 0.59375,0.0625 0.082031,0.03125 0.171875,0.058594 0.265625,0.078125 0.09375,0.023438 0.179688,0.042969 0.265625,0.0625 0.363281,0.117188 0.734375,0.210938 1.109375,0.28125 0.375,0.0625 0.769531,0.03125 1.1875,-0.09375 l 0.671875,-0.203125 -0.09375,-0.21875 C 7.242188,-5.117188 6.992188,-5.425781 6.671875,-5.625 6.347656,-5.820312 6.007812,-5.972656 5.65625,-6.078125 4.269531,-6.492188 3.019531,-7.269531 1.90625,-8.40625 1.082031,-9.238281 0.695312,-10.175781 0.75,-11.21875 c 0.050781,-1.019531 0.515625,-1.882812 1.390625,-2.59375 1.664063,-1.375 3.554687,-1.8125 5.671875,-1.3125 0.945312,0.210938 1.648438,0.683594 2.109375,1.421875 0.175781,0.3125 0.273437,0.652344 0.296875,1.015625 0,0.105469 -0.01563,0.226562 -0.04687,0.359375 -0.02344,0.136719 -0.07813,0.242187 -0.171875,0.3125 -0.15625,0.117187 -0.40625,0.105469 -0.75,-0.03125 -0.40625,-0.15625 -0.902344,-0.300781 -1.484375,-0.4375 -0.574219,-0.144531 -1.183594,-0.144531 -1.828125,0 -0.3125,0.0625 -0.617188,0.164063 -0.90625,0.296875 -0.28125,0.136719 -0.542969,0.277344 -0.78125,0.421875 -0.292969,0.167969 -0.4375,0.382813 -0.4375,0.640625 0,0.25 0.132812,0.464844 0.40625,0.640625 l 0.453125,0.265625 c 0.363281,0.210938 0.726563,0.421875 1.09375,0.640625 0.375,0.210937 0.753906,0.390625 1.140625,0.546875 2.15625,0.867188 3.460938,2.25 3.921875,4.15625 z m 0,0"
           id="path12" />
      </g>
    </g>
  </g>
  <g
     fill="#5e3b2c"
     fill-opacity="1"
     id="g18"
     transform="translate(-84.953246,-94.943999)">
    <g
       transform="translate(178.51771,261.92666)"
       id="g17">
      <g
         id="g16">
        <path
           d="m 15.375,-3.15625 c 0.375,0.585938 0.375,1.132812 0,1.640625 -0.449219,0.585937 -0.902344,0.976563 -1.359375,1.171875 -1.4375,0.675781 -3.023437,1.050781 -4.75,1.125 -2.554687,-0.1875 -4.625,-1.019531 -6.21875,-2.5 -2.125,-1.976562 -2.777344,-4.550781 -1.953125,-7.71875 0.601562,-2.382812 2.078125,-4.332031 4.421875,-5.84375 0.539063,-0.332031 1.101563,-0.582031 1.6875,-0.75 0.59375,-0.164062 1.1875,-0.25 1.78125,-0.25 0.707031,0 1.382813,0.117188 2.03125,0.34375 0.65625,0.21875 1.253906,0.546875 1.796875,0.984375 0.40625,0.34375 0.703125,0.710937 0.890625,1.09375 0.15625,0.367187 0.140625,0.6875 -0.04687,0.96875 -0.21875,0.28125 -0.542969,0.398437 -0.96875,0.34375 -0.3125,-0.03125 -0.65625,-0.125 -1.03125,-0.28125 -1.398438,-0.5625 -2.640625,-0.628906 -3.734375,-0.203125 -1.085937,0.429688 -2.089844,1.386719 -3.015625,2.875 -0.199219,0.324219 -0.351562,0.667969 -0.453125,1.03125 -0.105469,0.355469 -0.183594,0.683594 -0.234375,0.984375 -0.1875,0.9375 -0.0625,1.828125 0.375,2.671875 C 5.039067,-4.632812 5.73438,-4 6.67188,-3.5625 c 0.726563,0.367188 1.441406,0.578125 2.140625,0.640625 0.707031,0.0625 1.390625,0.039063 2.046875,-0.078125 0.65625,-0.125 1.28125,-0.289062 1.875,-0.5 0.164063,-0.050781 0.351563,-0.101562 0.5625,-0.15625 0.207031,-0.0625 0.410156,-0.109375 0.609375,-0.140625 0.644531,-0.070313 1.132812,0.140625 1.46875,0.640625 z m 0,0"
           id="path15" />
      </g>
    </g>
  </g>
  <g
     fill="#5e3b2c"
     fill-opacity="1"
     id="g21"
     transform="translate(-84.953246,-94.943999)">
    <g
       transform="translate(196.31717,261.92666)"
       id="g20">
      <g
         id="g19">
        <path
           d="m 8.609375,-15.046875 c 0.894531,0.210937 1.71875,0.476563 2.46875,0.796875 0.757813,0.324219 1.414063,0.746094 1.96875,1.265625 0.550781,0.523437 0.992187,1.179687 1.328125,1.96875 0.332031,0.78125 0.53125,1.742187 0.59375,2.875 -0.15625,1.804687 -0.671875,3.234375 -1.546875,4.296875 -0.179687,0.1875 -0.351563,0.382812 -0.515625,0.578125 -0.15625,0.199219 -0.324219,0.390625 -0.5,0.578125 l -0.390625,0.46875 c -1.292969,1.511719 -2.980469,2.1367188 -5.0625,1.875 C 6.804688,-0.351562 6.65625,-0.367188 6.5,-0.390625 6.351562,-0.421875 6.207031,-0.453125 6.0625,-0.484375 L 5.984375,-0.5 c -1.9375,-0.40625 -3.367187,-1.414062 -4.28125,-3.03125 -0.523437,-0.894531 -0.835937,-1.894531 -0.9375,-3 -0.09375,-1.101562 0.023437,-2.140625 0.359375,-3.109375 1.101562,-3.164063 3.203125,-4.945313 6.296875,-5.34375 l 0.21875,-0.04687 c 0.101563,-0.0078 0.207031,-0.01953 0.3125,-0.03125 0.113281,-0.01953 0.222656,-0.03125 0.328125,-0.03125 0.125,0 0.234375,0.01563 0.328125,0.04687 z M 11.3125,-7.8125 11.328125,-7.875 V -7.9375 C 11.234375,-8.664062 11.039062,-9.226562 10.75,-9.625 c -0.28125,-0.394531 -0.742188,-0.722656 -1.375,-0.984375 -0.585938,-0.238281 -1.089844,-0.46875 -1.515625,-0.6875 -0.585937,-0.289063 -1.085937,-0.382813 -1.5,-0.28125 -0.417969,0.09375 -0.808594,0.40625 -1.171875,0.9375 -1.074219,1.625 -1.335938,3.203125 -0.78125,4.734375 0.1875,0.523438 0.484375,0.960938 0.890625,1.3125 0.414063,0.34375 0.894531,0.570312 1.4375,0.671875 0.1875,0.042969 0.378906,0.0625 0.578125,0.0625 0.863281,0 1.578125,-0.320313 2.140625,-0.96875 C 9.503906,-4.878906 9.550781,-4.925781 9.59375,-4.96875 9.644531,-5.019531 9.691406,-5.066406 9.734375,-5.109375 9.859375,-5.242188 9.976562,-5.375 10.09375,-5.5 c 0.113281,-0.132812 0.21875,-0.273438 0.3125,-0.421875 0.125,-0.21875 0.238281,-0.4375 0.34375,-0.65625 0.101562,-0.21875 0.203125,-0.441406 0.296875,-0.671875 0.03906,-0.09375 0.08203,-0.1875 0.125,-0.28125 0.03906,-0.09375 0.08594,-0.1875 0.140625,-0.28125 z m 0,0"
           id="path18" />
      </g>
    </g>
  </g>
  <g
     fill="#5e3b2c"
     fill-opacity="1"
     id="g27"
     transform="translate(-84.953246,-94.943999)">
    <g
       transform="translate(220.68317,261.92666)"
       id="g26">
      <g
         id="g25">
        <path
           d="m 11.046875,-13.3125 c 0.707031,0.6875 1.25,1.496094 1.625,2.421875 0.382813,0.929687 0.578125,1.90625 0.578125,2.9375 0,2.1875 -0.871094,3.921875 -2.609375,5.203125 -2.21875,1.636719 -4.65625,2.511719 -7.3125,2.625 -0.617187,0.03125 -1.21875,-0.128906 -1.8125,-0.484375 -0.375,-0.195313 -0.609375,-0.5 -0.703125,-0.90625 -0.136719,-0.46875 -0.046875,-0.957031 0.265625,-1.46875 0.25,-0.414063 0.378906,-0.851563 0.390625,-1.3125 C 1.488281,-5.148438 1.503906,-6 1.515625,-6.84375 1.523438,-7.695312 1.539062,-8.554688 1.5625,-9.421875 c 0.00781,-0.570313 0.015625,-1.148437 0.015625,-1.734375 0.00781,-0.59375 0.019531,-1.175781 0.03125,-1.75 0,-0.40625 0.035156,-0.722656 0.109375,-0.953125 0.082031,-0.226563 0.21875,-0.410156 0.40625,-0.546875 0.195312,-0.132812 0.484375,-0.257812 0.859375,-0.375 0.300781,-0.101562 0.613281,-0.191406 0.9375,-0.265625 C 4.242188,-15.117188 4.5625,-15.1875 4.875,-15.25 c 0.101562,-0.03125 0.207031,-0.05469 0.3125,-0.07813 0.113281,-0.01953 0.222656,-0.03906 0.328125,-0.0625 l 0.015625,0.109375 h 0.1875 c 1.019531,-0.03125 1.988281,0.121094 2.90625,0.453125 0.925781,0.335937 1.734375,0.839844 2.421875,1.515625 z M 8.09375,-5.859375 c 0.476562,-0.28125 0.847656,-0.664063 1.109375,-1.15625 0.257813,-0.5 0.382813,-1.03125 0.375,-1.59375 0,-0.59375 -0.140625,-1.132813 -0.421875,-1.625 C 8.875,-10.734375 8.488281,-11.132812 8,-11.4375 c -0.417969,-0.25 -0.859375,-0.414062 -1.328125,-0.5 -0.460937,-0.09375 -0.917969,-0.164062 -1.375,-0.21875 -0.09375,-0.01953 -0.1875,-0.03516 -0.28125,-0.04687 -0.09375,-0.0078 -0.199219,-0.02344 -0.3125,-0.04687 L 4.4375,-12.28125 4.828125,-4.140625 5.125,-4.296875 c 0.175781,-0.09375 0.347656,-0.179687 0.515625,-0.265625 0.175781,-0.082031 0.34375,-0.164062 0.5,-0.25 0.351563,-0.15625 0.691406,-0.316406 1.015625,-0.484375 0.320312,-0.175781 0.632812,-0.363281 0.9375,-0.5625 z m 0,0"
           id="path24" />
      </g>
    </g>
  </g>
  <g
     fill="#5e3b2c"
     fill-opacity="1"
     id="g30"
     transform="translate(-84.953246,-94.943999)">
    <g
       transform="translate(236.11887,261.92666)"
       id="g29">
      <g
         id="g28">
        <path
           d="M 4.8125,-11.984375 C 4.90625,-10.554688 4.894531,-9.125 4.78125,-7.6875 4.664062,-6.25 4.523438,-4.835938 4.359375,-3.453125 L 4.25,-2.25 C 4.207031,-1.957031 4.097656,-1.648438 3.921875,-1.328125 3.597656,-0.773438 3.164062,-0.5 2.625,-0.5 2.125,-0.5 1.734375,-0.753906 1.453125,-1.265625 1.097656,-1.898438 0.90625,-2.609375 0.875,-3.390625 c -0.042969,-0.53125 -0.0625,-1.0625 -0.0625,-1.59375 0,-0.539063 0.003906,-1.078125 0.015625,-1.609375 0,-0.207031 0,-0.421875 0,-0.640625 0,-0.226563 0,-0.457031 0,-0.6875 v -0.21875 H 0.75 c 0.007812,-0.164063 0.015625,-0.332031 0.015625,-0.5 C 0.773438,-8.804688 0.78125,-8.96875 0.78125,-9.125 c 0.03125,-0.5 0.054688,-1 0.078125,-1.5 0.03125,-0.507812 0.066406,-1.019531 0.109375,-1.53125 0.050781,-0.632812 0.164062,-1.222656 0.34375,-1.765625 0.132812,-0.363281 0.347656,-0.648437 0.640625,-0.859375 0.289063,-0.207031 0.613281,-0.304688 0.96875,-0.296875 0.800781,0.04297 1.316406,0.433594 1.546875,1.171875 0.175781,0.554688 0.289062,1.195312 0.34375,1.921875 z m 0,0"
           id="path27" />
      </g>
    </g>
  </g>
  <g
     fill="#5e3b2c"
     fill-opacity="1"
     id="g33"
     transform="translate(-84.953246,-94.943999)">
    <g
       transform="translate(98.322333,284.42666)"
       id="g32">
      <g
         id="g31">
        <path
           d="m 10.828125,-4.875 c 0.238281,0.960938 0.160156,1.820312 -0.234375,2.578125 -0.386719,0.75 -1.023438,1.273437 -1.90625,1.5625 -1,0.355469 -2.199219,0.558594 -3.59375,0.609375 C 4.457031,-0.09375 3.894531,-0.234375 3.40625,-0.546875 2.914062,-0.867188 2.519531,-1.191406 2.21875,-1.515625 1.894531,-1.878906 1.695312,-2.269531 1.625,-2.6875 1.550781,-3.101562 1.613281,-3.476562 1.8125,-3.8125 c 0.320312,-0.570312 0.859375,-0.859375 1.609375,-0.859375 0.195313,0 0.394531,0.023437 0.59375,0.0625 0.082031,0.03125 0.171875,0.058594 0.265625,0.078125 0.09375,0.023438 0.179688,0.042969 0.265625,0.0625 0.363281,0.117188 0.734375,0.210938 1.109375,0.28125 0.375,0.0625 0.769531,0.03125 1.1875,-0.09375 l 0.671875,-0.203125 -0.09375,-0.21875 C 7.242188,-5.117188 6.992188,-5.425781 6.671875,-5.625 6.347656,-5.820312 6.007812,-5.972656 5.65625,-6.078125 4.269531,-6.492188 3.019531,-7.269531 1.90625,-8.40625 1.082031,-9.238281 0.695312,-10.175781 0.75,-11.21875 c 0.050781,-1.019531 0.515625,-1.882812 1.390625,-2.59375 1.664063,-1.375 3.554687,-1.8125 5.671875,-1.3125 0.945312,0.210938 1.648438,0.683594 2.109375,1.421875 0.175781,0.3125 0.273437,0.652344 0.296875,1.015625 0,0.105469 -0.01563,0.226562 -0.04687,0.359375 -0.02344,0.136719 -0.07813,0.242187 -0.171875,0.3125 -0.15625,0.117187 -0.40625,0.105469 -0.75,-0.03125 -0.40625,-0.15625 -0.902344,-0.300781 -1.484375,-0.4375 -0.574219,-0.144531 -1.183594,-0.144531 -1.828125,0 -0.3125,0.0625 -0.617188,0.164063 -0.90625,0.296875 -0.28125,0.136719 -0.542969,0.277344 -0.78125,0.421875 -0.292969,0.167969 -0.4375,0.382813 -0.4375,0.640625 0,0.25 0.132812,0.464844 0.40625,0.640625 l 0.453125,0.265625 c 0.363281,0.210938 0.726563,0.421875 1.09375,0.640625 0.375,0.210937 0.753906,0.390625 1.140625,0.546875 2.15625,0.867188 3.460938,2.25 3.921875,4.15625 z m 0,0"
           id="path30" />
      </g>
    </g>
  </g>
  <g
     fill="#5e3b2c"
     fill-opacity="1"
     id="g36"
     transform="translate(-84.953246,-94.943999)">
    <g
       transform="translate(111.45488,284.42666)"
       id="g35">
      <g
         id="g34">
        <path
           d="m 15.453125,-3.3125 c 0.0078,0.09375 0.03125,0.183594 0.0625,0.265625 -0.01172,0.5 -0.121094,0.917969 -0.328125,1.25 -0.210938,0.335937 -0.507812,0.558594 -0.890625,0.671875 -0.375,0.117188 -0.742187,0.101562 -1.09375,-0.046875 -0.34375,-0.144531 -0.625,-0.394531 -0.84375,-0.75 C 12.128906,-2.304688 11.9375,-2.789062 11.78125,-3.375 11.726562,-3.59375 11.632812,-3.785156 11.5,-3.953125 11.363281,-4.128906 11.117188,-4.226562 10.765625,-4.25 10.378906,-4.257812 9.988281,-4.269531 9.59375,-4.28125 9.207031,-4.289062 8.816406,-4.304688 8.421875,-4.328125 7.910156,-4.347656 7.390625,-4.367188 6.859375,-4.390625 6.335938,-4.410156 5.816406,-4.425781 5.296875,-4.4375 c -0.136719,0 -0.289063,0.058594 -0.453125,0.171875 -0.15625,0.117187 -0.277344,0.230469 -0.359375,0.34375 -0.105469,0.1875 -0.210937,0.382813 -0.3125,0.578125 C 4.066406,-3.144531 3.96875,-2.953125 3.875,-2.765625 3.78125,-2.578125 3.679688,-2.378906 3.578125,-2.171875 3.484375,-1.972656 3.375,-1.78125 3.25,-1.59375 2.78125,-0.769531 2.207031,-0.507812 1.53125,-0.8125 1.257812,-0.914062 1.039062,-1.128906 0.875,-1.453125 0.707031,-1.773438 0.691406,-2.15625 0.828125,-2.59375 c 0.46875,-1.457031 1.070313,-3.117188 1.8125,-4.984375 0.476563,-1.1875 1.070313,-2.519531 1.78125,-4 0.207031,-0.414063 0.429687,-0.851563 0.671875,-1.3125 0.25,-0.46875 0.523438,-0.925781 0.828125,-1.375 0.3125,-0.445313 0.757813,-0.835937 1.34375,-1.171875 0.445313,-0.269531 0.875,-0.40625 1.28125,-0.40625 0.707031,0 1.300781,0.402344 1.78125,1.203125 0.925781,1.585937 1.832031,3.234375 2.71875,4.953125 0.894531,1.71875 1.617187,3.527344 2.171875,5.421875 0.05078,0.179687 0.09766,0.351563 0.140625,0.515625 0.03906,0.15625 0.07031,0.304688 0.09375,0.4375 z m -8.96875,-4.546875 h 3.78125 L 8.09375,-12.28125 Z m 0,0"
           id="path33" />
      </g>
    </g>
  </g>
  <g
     fill="#5e3b2c"
     fill-opacity="1"
     id="g39"
     transform="translate(-84.953246,-94.943999)">
    <g
       transform="translate(129.13313,284.42666)"
       id="g38">
      <g
         id="g37">
        <path
           d="m 15.125,-14.46875 c 0.08203,0.40625 0.125,0.839844 0.125,1.296875 l -0.03125,1.65625 c -0.03125,1.28125 -0.0625,2.578125 -0.09375,3.890625 -0.02344,1.3125 -0.05859,2.621094 -0.109375,3.921875 -0.04297,1.40625 -0.453125,2.324219 -1.234375,2.75 -0.761719,0.417969 -1.730469,0.292969 -2.90625,-0.375 C 10.257812,-1.679688 9.695312,-2.101562 9.1875,-2.59375 8.6875,-3.082031 8.273438,-3.523438 7.953125,-3.921875 7.554688,-4.378906 7.175781,-4.859375 6.8125,-5.359375 6.445312,-5.867188 6.085938,-6.375 5.734375,-6.875 5.585938,-7.070312 5.441406,-7.269531 5.296875,-7.46875 5.160156,-7.675781 5.019531,-7.878906 4.875,-8.078125 L 4.78125,-8.21875 C 4.707031,-8.332031 4.625,-8.445312 4.53125,-8.5625 4.4375,-8.675781 4.3125,-8.785156 4.15625,-8.890625 L 3.8125,-9.15625 V -8.5 c 0,0.074219 0,0.152344 0,0.234375 0,0.074219 0,0.148437 0,0.21875 L 3.75,-6.734375 C 3.726562,-5.890625 3.703125,-5.039062 3.671875,-4.1875 3.648438,-3.332031 3.617188,-2.488281 3.578125,-1.65625 3.566406,-1.34375 3.476562,-1.035156 3.3125,-0.734375 3.113281,-0.304688 2.832031,-0.0859375 2.46875,-0.078125 2.113281,-0.0546875 1.820312,-0.238281 1.59375,-0.625 1.375,-0.945312 1.253906,-1.265625 1.234375,-1.578125 0.972656,-3.691406 0.816406,-5.632812 0.765625,-7.40625 0.710938,-9.1875 0.757812,-10.894531 0.90625,-12.53125 0.914062,-12.8125 0.988281,-13.109375 1.125,-13.421875 1.34375,-13.972656 1.703125,-14.332031 2.203125,-14.5 c 0.1875,-0.0625 0.367187,-0.09375 0.546875,-0.09375 0.320312,0 0.628906,0.08984 0.921875,0.265625 0.4375,0.25 0.800781,0.5625 1.09375,0.9375 0.332031,0.429687 0.664063,0.867187 1,1.3125 0.34375,0.4375 0.675781,0.875 1,1.3125 0.1875,0.242187 0.367187,0.484375 0.546875,0.734375 0.1875,0.242188 0.375,0.480469 0.5625,0.71875 0.320312,0.429688 0.644531,0.851562 0.96875,1.265625 0.320312,0.417969 0.644531,0.84375 0.96875,1.28125 l 1,1.265625 0.515625,-0.203125 0.03125,-0.359375 c 0.0078,-0.082031 0.01563,-0.160156 0.01563,-0.234375 0,-0.082031 0.0039,-0.164063 0.01563,-0.25 0,-0.3125 0.0039,-0.617187 0.01563,-0.921875 0.01953,-0.3125 0.03125,-0.625 0.03125,-0.9375 0.01953,-0.769531 0.04687,-1.546875 0.07813,-2.328125 0.03125,-0.78125 0.05469,-1.5625 0.07813,-2.34375 0.03906,-0.582031 0.171875,-1.160156 0.390625,-1.734375 0.144531,-0.363281 0.375,-0.640625 0.6875,-0.828125 0.320313,-0.1875 0.671875,-0.257813 1.046875,-0.21875 0.351562,0.04297 0.660156,0.195313 0.921875,0.453125 0.257813,0.25 0.421875,0.5625 0.484375,0.9375 z m 0,0"
           id="path36" />
      </g>
    </g>
  </g>
  <g
     fill="#5e3b2c"
     fill-opacity="1"
     id="g42"
     transform="translate(-84.953246,-94.943999)">
    <g
       transform="translate(146.56893,284.42666)"
       id="g41">
      <g
         id="g40">
        <path
           d="m 11.453125,-14.875 c 0.4375,0.125 0.773437,0.351562 1.015625,0.671875 0.238281,0.3125 0.335938,0.664063 0.296875,1.046875 -0.04297,0.40625 -0.210937,0.75 -0.5,1.03125 -0.28125,0.273438 -0.648437,0.421875 -1.09375,0.453125 -0.21875,0.01172 -0.4375,0.01563 -0.65625,0.01563 -0.210937,0 -0.421875,0 -0.640625,0 -0.105469,0 -0.210938,0 -0.3125,0 -0.09375,0 -0.199219,0 -0.3125,0 H 7.390625 L 7.4375,-11.42187 c 0.019531,0.261719 0.050781,0.515625 0.09375,0.765625 0.039062,0.242188 0.078125,0.480469 0.109375,0.71875 0.082031,0.542969 0.15625,1.074219 0.21875,1.59375 0.0625,0.511719 0.125,1.023438 0.1875,1.53125 0.0625,0.574219 0.125,1.179688 0.1875,1.8125 0.0625,0.636719 0.101563,1.292969 0.125,1.96875 0.019531,0.492188 -0.074219,1 -0.28125,1.53125 -0.273437,0.679688 -0.777344,1.023438 -1.515625,1.03125 -0.75,-0.007812 -1.257812,-0.34375 -1.515625,-1 C 4.804688,-2.113281 4.6875,-2.753906 4.6875,-3.390625 c 0,-0.894531 0.00391,-1.78125 0.015625,-2.65625 0.019531,-0.882813 0.039063,-1.765625 0.0625,-2.640625 0,-0.351562 0,-0.703125 0,-1.046875 0.00781,-0.351563 0.023437,-0.710937 0.046875,-1.078125 0,-0.05078 -0.011719,-0.144531 -0.03125,-0.28125 L 4.765625,-11.4375 4.09375,-11.5 c -0.230469,-0.01953 -0.460938,-0.03906 -0.6875,-0.0625 -0.21875,-0.01953 -0.445312,-0.04687 -0.671875,-0.07813 -0.125,-0.0078 -0.242187,-0.01953 -0.34375,-0.03125 -0.09375,-0.01953 -0.199219,-0.03906 -0.3125,-0.0625 C 1.210938,-11.941411 0.769531,-12.39063 0.75,-13.07813 0.71875,-13.785161 1.148438,-14.269536 2.046875,-14.531255 H 2.09375 c 0.039062,-0.01953 0.070312,-0.03125 0.09375,-0.03125 0.425781,-0.03125 0.851562,-0.06641 1.28125,-0.109375 0.4375,-0.03906 0.863281,-0.08594 1.28125,-0.140625 0.6875,-0.0625 1.375,-0.125 2.0625,-0.1875 0.695312,-0.07031 1.390625,-0.109375 2.078125,-0.109375 0.351563,0 0.695313,0.01172 1.03125,0.03125 0.34375,0.02344 0.691406,0.05859 1.046875,0.109375 0.175781,0.02344 0.335938,0.05469 0.484375,0.09375 z m 0,0"
           id="path39" />
      </g>
    </g>
  </g>
  <g
     fill="#5e3b2c"
     fill-opacity="1"
     id="g45"
     transform="translate(-84.953246,-94.943999)">
    <g
       transform="translate(161.51975,284.42666)"
       id="g44">
      <g
         id="g43">
        <path
           d="m 4.59375,-14.734375 0.125,0.21875 c -0.324219,1.304687 -0.902344,2.882813 -1.734375,4.734375 h -1.34375 c 0.457031,-2 0.785156,-3.648438 0.984375,-4.953125 z m -0.125,2.171875 z m -0.046875,-5.546875 z m 0,0"
           id="path42" />
      </g>
    </g>
  </g>
  <g
     fill="#5e3b2c"
     fill-opacity="1"
     id="g48"
     transform="translate(-84.953246,-94.943999)">
    <g
       transform="translate(169.22824,284.42666)"
       id="g47">
      <g
         id="g46">
        <path
           d="m 15.453125,-3.3125 c 0.0078,0.09375 0.03125,0.183594 0.0625,0.265625 -0.01172,0.5 -0.121094,0.917969 -0.328125,1.25 -0.210938,0.335937 -0.507812,0.558594 -0.890625,0.671875 -0.375,0.117188 -0.742187,0.101562 -1.09375,-0.046875 -0.34375,-0.144531 -0.625,-0.394531 -0.84375,-0.75 C 12.128906,-2.304688 11.9375,-2.789062 11.78125,-3.375 11.726562,-3.59375 11.632812,-3.785156 11.5,-3.953125 11.363281,-4.128906 11.117188,-4.226562 10.765625,-4.25 10.378906,-4.257812 9.988281,-4.269531 9.59375,-4.28125 9.207031,-4.289062 8.816406,-4.304688 8.421875,-4.328125 7.910156,-4.347656 7.390625,-4.367188 6.859375,-4.390625 6.335938,-4.410156 5.816406,-4.425781 5.296875,-4.4375 c -0.136719,0 -0.289063,0.058594 -0.453125,0.171875 -0.15625,0.117187 -0.277344,0.230469 -0.359375,0.34375 -0.105469,0.1875 -0.210937,0.382813 -0.3125,0.578125 C 4.066406,-3.144531 3.96875,-2.953125 3.875,-2.765625 3.78125,-2.578125 3.679688,-2.378906 3.578125,-2.171875 3.484375,-1.972656 3.375,-1.78125 3.25,-1.59375 2.78125,-0.769531 2.207031,-0.507812 1.53125,-0.8125 1.257812,-0.914062 1.039062,-1.128906 0.875,-1.453125 0.707031,-1.773438 0.691406,-2.15625 0.828125,-2.59375 c 0.46875,-1.457031 1.070313,-3.117188 1.8125,-4.984375 0.476563,-1.1875 1.070313,-2.519531 1.78125,-4 0.207031,-0.414063 0.429687,-0.851563 0.671875,-1.3125 0.25,-0.46875 0.523438,-0.925781 0.828125,-1.375 0.3125,-0.445313 0.757813,-0.835937 1.34375,-1.171875 0.445313,-0.269531 0.875,-0.40625 1.28125,-0.40625 0.707031,0 1.300781,0.402344 1.78125,1.203125 0.925781,1.585937 1.832031,3.234375 2.71875,4.953125 0.894531,1.71875 1.617187,3.527344 2.171875,5.421875 0.05078,0.179687 0.09766,0.351563 0.140625,0.515625 0.03906,0.15625 0.07031,0.304688 0.09375,0.4375 z m -8.96875,-4.546875 h 3.78125 L 8.09375,-12.28125 Z m 0,0"
           id="path45" />
      </g>
    </g>
  </g>
  <g
     fill="#5e3b2c"
     fill-opacity="1"
     id="g51"
     transform="translate(-84.953246,-94.943999)">
    <g
       transform="translate(186.90649,284.42666)"
       id="g50">
      <g
         id="g49">
        <path
           d="m 15.125,-14.46875 c 0.08203,0.40625 0.125,0.839844 0.125,1.296875 l -0.03125,1.65625 c -0.03125,1.28125 -0.0625,2.578125 -0.09375,3.890625 -0.02344,1.3125 -0.05859,2.621094 -0.109375,3.921875 -0.04297,1.40625 -0.453125,2.324219 -1.234375,2.75 -0.761719,0.417969 -1.730469,0.292969 -2.90625,-0.375 C 10.257812,-1.679688 9.695312,-2.101562 9.1875,-2.59375 8.6875,-3.082031 8.273438,-3.523438 7.953125,-3.921875 7.554688,-4.378906 7.175781,-4.859375 6.8125,-5.359375 6.445312,-5.867188 6.085938,-6.375 5.734375,-6.875 5.585938,-7.070312 5.441406,-7.269531 5.296875,-7.46875 5.160156,-7.675781 5.019531,-7.878906 4.875,-8.078125 L 4.78125,-8.21875 C 4.707031,-8.332031 4.625,-8.445312 4.53125,-8.5625 4.4375,-8.675781 4.3125,-8.785156 4.15625,-8.890625 L 3.8125,-9.15625 V -8.5 c 0,0.074219 0,0.152344 0,0.234375 0,0.074219 0,0.148437 0,0.21875 L 3.75,-6.734375 C 3.726562,-5.890625 3.703125,-5.039062 3.671875,-4.1875 3.648438,-3.332031 3.617188,-2.488281 3.578125,-1.65625 3.566406,-1.34375 3.476562,-1.035156 3.3125,-0.734375 3.113281,-0.304688 2.832031,-0.0859375 2.46875,-0.078125 2.113281,-0.0546875 1.820312,-0.238281 1.59375,-0.625 1.375,-0.945312 1.253906,-1.265625 1.234375,-1.578125 0.972656,-3.691406 0.816406,-5.632812 0.765625,-7.40625 0.710938,-9.1875 0.757812,-10.894531 0.90625,-12.53125 0.914062,-12.8125 0.988281,-13.109375 1.125,-13.421875 1.34375,-13.972656 1.703125,-14.332031 2.203125,-14.5 c 0.1875,-0.0625 0.367187,-0.09375 0.546875,-0.09375 0.320312,0 0.628906,0.08984 0.921875,0.265625 0.4375,0.25 0.800781,0.5625 1.09375,0.9375 0.332031,0.429687 0.664063,0.867187 1,1.3125 0.34375,0.4375 0.675781,0.875 1,1.3125 0.1875,0.242187 0.367187,0.484375 0.546875,0.734375 0.1875,0.242188 0.375,0.480469 0.5625,0.71875 0.320312,0.429688 0.644531,0.851562 0.96875,1.265625 0.320312,0.417969 0.644531,0.84375 0.96875,1.28125 l 1,1.265625 0.515625,-0.203125 0.03125,-0.359375 c 0.0078,-0.082031 0.01563,-0.160156 0.01563,-0.234375 0,-0.082031 0.0039,-0.164063 0.01563,-0.25 0,-0.3125 0.0039,-0.617187 0.01563,-0.921875 0.01953,-0.3125 0.03125,-0.625 0.03125,-0.9375 0.01953,-0.769531 0.04687,-1.546875 0.07813,-2.328125 0.03125,-0.78125 0.05469,-1.5625 0.07813,-2.34375 0.03906,-0.582031 0.171875,-1.160156 0.390625,-1.734375 0.144531,-0.363281 0.375,-0.640625 0.6875,-0.828125 0.320313,-0.1875 0.671875,-0.257813 1.046875,-0.21875 0.351562,0.04297 0.660156,0.195313 0.921875,0.453125 0.257813,0.25 0.421875,0.5625 0.484375,0.9375 z m 0,0"
           id="path48" />
      </g>
    </g>
  </g>
  <g
     fill="#5e3b2c"
     fill-opacity="1"
     id="g54"
     transform="translate(-84.953246,-94.943999)">
    <g
       transform="translate(204.34229,284.42666)"
       id="g53">
      <g
         id="g52">
        <path
           d="m 11.453125,-14.875 c 0.4375,0.125 0.773437,0.351562 1.015625,0.671875 0.238281,0.3125 0.335938,0.664063 0.296875,1.046875 -0.04297,0.40625 -0.210937,0.75 -0.5,1.03125 -0.28125,0.273438 -0.648437,0.421875 -1.09375,0.453125 -0.21875,0.01172 -0.4375,0.01563 -0.65625,0.01563 -0.210937,0 -0.421875,0 -0.640625,0 -0.105469,0 -0.210938,0 -0.3125,0 -0.09375,0 -0.199219,0 -0.3125,0 H 7.390625 L 7.4375,-11.42187 c 0.019531,0.261719 0.050781,0.515625 0.09375,0.765625 0.039062,0.242188 0.078125,0.480469 0.109375,0.71875 0.082031,0.542969 0.15625,1.074219 0.21875,1.59375 0.0625,0.511719 0.125,1.023438 0.1875,1.53125 0.0625,0.574219 0.125,1.179688 0.1875,1.8125 0.0625,0.636719 0.101563,1.292969 0.125,1.96875 0.019531,0.492188 -0.074219,1 -0.28125,1.53125 -0.273437,0.679688 -0.777344,1.023438 -1.515625,1.03125 -0.75,-0.007812 -1.257812,-0.34375 -1.515625,-1 C 4.804688,-2.113281 4.6875,-2.753906 4.6875,-3.390625 c 0,-0.894531 0.00391,-1.78125 0.015625,-2.65625 0.019531,-0.882813 0.039063,-1.765625 0.0625,-2.640625 0,-0.351562 0,-0.703125 0,-1.046875 0.00781,-0.351563 0.023437,-0.710937 0.046875,-1.078125 0,-0.05078 -0.011719,-0.144531 -0.03125,-0.28125 L 4.765625,-11.4375 4.09375,-11.5 c -0.230469,-0.01953 -0.460938,-0.03906 -0.6875,-0.0625 -0.21875,-0.01953 -0.445312,-0.04687 -0.671875,-0.07813 -0.125,-0.0078 -0.242187,-0.01953 -0.34375,-0.03125 -0.09375,-0.01953 -0.199219,-0.03906 -0.3125,-0.0625 C 1.210938,-11.941411 0.769531,-12.39063 0.75,-13.07813 0.71875,-13.785161 1.148438,-14.269536 2.046875,-14.531255 H 2.09375 c 0.039062,-0.01953 0.070312,-0.03125 0.09375,-0.03125 0.425781,-0.03125 0.851562,-0.06641 1.28125,-0.109375 0.4375,-0.03906 0.863281,-0.08594 1.28125,-0.140625 0.6875,-0.0625 1.375,-0.125 2.0625,-0.1875 0.695312,-0.07031 1.390625,-0.109375 2.078125,-0.109375 0.351563,0 0.695313,0.01172 1.03125,0.03125 0.34375,0.02344 0.691406,0.05859 1.046875,0.109375 0.175781,0.02344 0.335938,0.05469 0.484375,0.09375 z m 0,0"
           id="path51" />
      </g>
    </g>
  </g>
  <g
     fill="#5e3b2c"
     fill-opacity="1"
     id="g57"
     transform="translate(-84.953246,-94.943999)">
    <g
       transform="translate(219.29312,284.42666)"
       id="g56">
      <g
         id="g55">
        <path
           d="m 8.609375,-15.046875 c 0.894531,0.210937 1.71875,0.476563 2.46875,0.796875 0.757813,0.324219 1.414063,0.746094 1.96875,1.265625 0.550781,0.523437 0.992187,1.179687 1.328125,1.96875 0.332031,0.78125 0.53125,1.742187 0.59375,2.875 -0.15625,1.804687 -0.671875,3.234375 -1.546875,4.296875 -0.179687,0.1875 -0.351563,0.382812 -0.515625,0.578125 -0.15625,0.199219 -0.324219,0.390625 -0.5,0.578125 l -0.390625,0.46875 c -1.292969,1.511719 -2.980469,2.1367188 -5.0625,1.875 C 6.804688,-0.351562 6.65625,-0.367188 6.5,-0.390625 6.351562,-0.421875 6.207031,-0.453125 6.0625,-0.484375 L 5.984375,-0.5 c -1.9375,-0.40625 -3.367187,-1.414062 -4.28125,-3.03125 -0.523437,-0.894531 -0.835937,-1.894531 -0.9375,-3 -0.09375,-1.101562 0.023437,-2.140625 0.359375,-3.109375 1.101562,-3.164063 3.203125,-4.945313 6.296875,-5.34375 l 0.21875,-0.04687 c 0.101563,-0.0078 0.207031,-0.01953 0.3125,-0.03125 0.113281,-0.01953 0.222656,-0.03125 0.328125,-0.03125 0.125,0 0.234375,0.01563 0.328125,0.04687 z M 11.3125,-7.8125 11.328125,-7.875 V -7.9375 C 11.234375,-8.664062 11.039062,-9.226562 10.75,-9.625 c -0.28125,-0.394531 -0.742188,-0.722656 -1.375,-0.984375 -0.585938,-0.238281 -1.089844,-0.46875 -1.515625,-0.6875 -0.585937,-0.289063 -1.085937,-0.382813 -1.5,-0.28125 -0.417969,0.09375 -0.808594,0.40625 -1.171875,0.9375 -1.074219,1.625 -1.335938,3.203125 -0.78125,4.734375 0.1875,0.523438 0.484375,0.960938 0.890625,1.3125 0.414063,0.34375 0.894531,0.570312 1.4375,0.671875 0.1875,0.042969 0.378906,0.0625 0.578125,0.0625 0.863281,0 1.578125,-0.320313 2.140625,-0.96875 C 9.503906,-4.878906 9.550781,-4.925781 9.59375,-4.96875 9.644531,-5.019531 9.691406,-5.066406 9.734375,-5.109375 9.859375,-5.242188 9.976562,-5.375 10.09375,-5.5 c 0.113281,-0.132812 0.21875,-0.273438 0.3125,-0.421875 0.125,-0.21875 0.238281,-0.4375 0.34375,-0.65625 0.101562,-0.21875 0.203125,-0.441406 0.296875,-0.671875 0.03906,-0.09375 0.08203,-0.1875 0.125,-0.28125 0.03906,-0.09375 0.08594,-0.1875 0.140625,-0.28125 z m 0,0"
           id="path54" />
      </g>
    </g>
  </g>
  <g
     fill="#5e3b2c"
     fill-opacity="1"
     id="g60"
     transform="translate(-84.953246,-94.943999)">
    <g
       transform="translate(236.44608,284.42666)"
       id="g59">
      <g
         id="g58">
        <path
           d="m 15.125,-14.46875 c 0.08203,0.40625 0.125,0.839844 0.125,1.296875 l -0.03125,1.65625 c -0.03125,1.28125 -0.0625,2.578125 -0.09375,3.890625 -0.02344,1.3125 -0.05859,2.621094 -0.109375,3.921875 -0.04297,1.40625 -0.453125,2.324219 -1.234375,2.75 -0.761719,0.417969 -1.730469,0.292969 -2.90625,-0.375 C 10.257812,-1.679688 9.695312,-2.101562 9.1875,-2.59375 8.6875,-3.082031 8.273438,-3.523438 7.953125,-3.921875 7.554688,-4.378906 7.175781,-4.859375 6.8125,-5.359375 6.445312,-5.867188 6.085938,-6.375 5.734375,-6.875 5.585938,-7.070312 5.441406,-7.269531 5.296875,-7.46875 5.160156,-7.675781 5.019531,-7.878906 4.875,-8.078125 L 4.78125,-8.21875 C 4.707031,-8.332031 4.625,-8.445312 4.53125,-8.5625 4.4375,-8.675781 4.3125,-8.785156 4.15625,-8.890625 L 3.8125,-9.15625 V -8.5 c 0,0.074219 0,0.152344 0,0.234375 0,0.074219 0,0.148437 0,0.21875 L 3.75,-6.734375 C 3.726562,-5.890625 3.703125,-5.039062 3.671875,-4.1875 3.648438,-3.332031 3.617188,-2.488281 3.578125,-1.65625 3.566406,-1.34375 3.476562,-1.035156 3.3125,-0.734375 3.113281,-0.304688 2.832031,-0.0859375 2.46875,-0.078125 2.113281,-0.0546875 1.820312,-0.238281 1.59375,-0.625 1.375,-0.945312 1.253906,-1.265625 1.234375,-1.578125 0.972656,-3.691406 0.816406,-5.632812 0.765625,-7.40625 0.710938,-9.1875 0.757812,-10.894531 0.90625,-12.53125 0.914062,-12.8125 0.988281,-13.109375 1.125,-13.421875 1.34375,-13.972656 1.703125,-14.332031 2.203125,-14.5 c 0.1875,-0.0625 0.367187,-0.09375 0.546875,-0.09375 0.320312,0 0.628906,0.08984 0.921875,0.265625 0.4375,0.25 0.800781,0.5625 1.09375,0.9375 0.332031,0.429687 0.664063,0.867187 1,1.3125 0.34375,0.4375 0.675781,0.875 1,1.3125 0.1875,0.242187 0.367187,0.484375 0.546875,0.734375 0.1875,0.242188 0.375,0.480469 0.5625,0.71875 0.320312,0.429688 0.644531,0.851562 0.96875,1.265625 0.320312,0.417969 0.644531,0.84375 0.96875,1.28125 l 1,1.265625 0.515625,-0.203125 0.03125,-0.359375 c 0.0078,-0.082031 0.01563,-0.160156 0.01563,-0.234375 0,-0.082031 0.0039,-0.164063 0.01563,-0.25 0,-0.3125 0.0039,-0.617187 0.01563,-0.921875 0.01953,-0.3125 0.03125,-0.625 0.03125,-0.9375 0.01953,-0.769531 0.04687,-1.546875 0.07813,-2.328125 0.03125,-0.78125 0.05469,-1.5625 0.07813,-2.34375 0.03906,-0.582031 0.171875,-1.160156 0.390625,-1.734375 0.144531,-0.363281 0.375,-0.640625 0.6875,-0.828125 0.320313,-0.1875 0.671875,-0.257813 1.046875,-0.21875 0.351562,0.04297 0.660156,0.195313 0.921875,0.453125 0.257813,0.25 0.421875,0.5625 0.484375,0.9375 z m 0,0"
           id="path57" />
      </g>
    </g>
  </g>
  <g
     fill="#5e3b2c"
     fill-opacity="1"
     id="g63"
     transform="translate(-84.953246,-94.943999)">
    <g
       transform="translate(253.88189,284.42666)"
       id="g62">
      <g
         id="g61">
        <path
           d="M 4.8125,-11.984375 C 4.90625,-10.554688 4.894531,-9.125 4.78125,-7.6875 4.664062,-6.25 4.523438,-4.835938 4.359375,-3.453125 L 4.25,-2.25 C 4.207031,-1.957031 4.097656,-1.648438 3.921875,-1.328125 3.597656,-0.773438 3.164062,-0.5 2.625,-0.5 2.125,-0.5 1.734375,-0.753906 1.453125,-1.265625 1.097656,-1.898438 0.90625,-2.609375 0.875,-3.390625 c -0.042969,-0.53125 -0.0625,-1.0625 -0.0625,-1.59375 0,-0.539063 0.003906,-1.078125 0.015625,-1.609375 0,-0.207031 0,-0.421875 0,-0.640625 0,-0.226563 0,-0.457031 0,-0.6875 v -0.21875 H 0.75 c 0.007812,-0.164063 0.015625,-0.332031 0.015625,-0.5 C 0.773438,-8.804688 0.78125,-8.96875 0.78125,-9.125 c 0.03125,-0.5 0.054688,-1 0.078125,-1.5 0.03125,-0.507812 0.066406,-1.019531 0.109375,-1.53125 0.050781,-0.632812 0.164062,-1.222656 0.34375,-1.765625 0.132812,-0.363281 0.347656,-0.648437 0.640625,-0.859375 0.289063,-0.207031 0.613281,-0.304688 0.96875,-0.296875 0.800781,0.04297 1.316406,0.433594 1.546875,1.171875 0.175781,0.554688 0.289062,1.195312 0.34375,1.921875 z m 0,0"
           id="path60" />
      </g>
    </g>
  </g>
  <g
     fill="#5e3b2c"
     fill-opacity="1"
     id="g66"
     transform="translate(-84.953246,-94.943999)">
    <g
       transform="translate(260.9333,284.42666)"
       id="g65">
      <g
         id="g64">
        <path
           d="m 8.609375,-15.046875 c 0.894531,0.210937 1.71875,0.476563 2.46875,0.796875 0.757813,0.324219 1.414063,0.746094 1.96875,1.265625 0.550781,0.523437 0.992187,1.179687 1.328125,1.96875 0.332031,0.78125 0.53125,1.742187 0.59375,2.875 -0.15625,1.804687 -0.671875,3.234375 -1.546875,4.296875 -0.179687,0.1875 -0.351563,0.382812 -0.515625,0.578125 -0.15625,0.199219 -0.324219,0.390625 -0.5,0.578125 l -0.390625,0.46875 c -1.292969,1.511719 -2.980469,2.1367188 -5.0625,1.875 C 6.804688,-0.351562 6.65625,-0.367188 6.5,-0.390625 6.351562,-0.421875 6.207031,-0.453125 6.0625,-0.484375 L 5.984375,-0.5 c -1.9375,-0.40625 -3.367187,-1.414062 -4.28125,-3.03125 -0.523437,-0.894531 -0.835937,-1.894531 -0.9375,-3 -0.09375,-1.101562 0.023437,-2.140625 0.359375,-3.109375 1.101562,-3.164063 3.203125,-4.945313 6.296875,-5.34375 l 0.21875,-0.04687 c 0.101563,-0.0078 0.207031,-0.01953 0.3125,-0.03125 0.113281,-0.01953 0.222656,-0.03125 0.328125,-0.03125 0.125,0 0.234375,0.01563 0.328125,0.04687 z M 11.3125,-7.8125 11.328125,-7.875 V -7.9375 C 11.234375,-8.664062 11.039062,-9.226562 10.75,-9.625 c -0.28125,-0.394531 -0.742188,-0.722656 -1.375,-0.984375 -0.585938,-0.238281 -1.089844,-0.46875 -1.515625,-0.6875 -0.585937,-0.289063 -1.085937,-0.382813 -1.5,-0.28125 -0.417969,0.09375 -0.808594,0.40625 -1.171875,0.9375 -1.074219,1.625 -1.335938,3.203125 -0.78125,4.734375 0.1875,0.523438 0.484375,0.960938 0.890625,1.3125 0.414063,0.34375 0.894531,0.570312 1.4375,0.671875 0.1875,0.042969 0.378906,0.0625 0.578125,0.0625 0.863281,0 1.578125,-0.320313 2.140625,-0.96875 C 9.503906,-4.878906 9.550781,-4.925781 9.59375,-4.96875 9.644531,-5.019531 9.691406,-5.066406 9.734375,-5.109375 9.859375,-5.242188 9.976562,-5.375 10.09375,-5.5 c 0.113281,-0.132812 0.21875,-0.273438 0.3125,-0.421875 0.125,-0.21875 0.238281,-0.4375 0.34375,-0.65625 0.101562,-0.21875 0.203125,-0.441406 0.296875,-0.671875 0.03906,-0.09375 0.08203,-0.1875 0.125,-0.28125 0.03906,-0.09375 0.08594,-0.1875 0.140625,-0.28125 z m 0,0"
           id="path63" />
      </g>
    </g>
  </g>
  <rect
     style="opacity:0;fill:#000000;stroke-width:0.75"
     id="rect66"
     width="202.5"
     height="202.5"
     x="1.019439e-06"
     y="1.139328e-06" />
</svg>
